<svg xmlns="http://www.w3.org/2000/svg" width="956" height="551" fill="none" viewBox="0 0 956 551">
    <mask id="a" width="962" height="787" x="-5" y="-236" maskUnits="userSpaceOnUse">
        <path fill="#8AA4F8" d="M-4.608 53.04C-2.67 139.44 39.811 225.345 64.04 241.938c91.813 63.072-57.864 142.314 0 194.119 78.364 70.174 370.727-27.517 465.786 70.043 95.058 97.56 357.621 24.824 416.755-119.573 21.513-52.532 9.22-179.791-68.76-301.475C832.292 14.01 743.633-18.72 576.353-18.72c-136.083 0-286.742-166.804-380.733-207.628C52.532-288.497-5.874-2.2-4.608 53.041z"/>
    </mask>
    <g mask="url(#a)">
        <path fill="#4B4B6D" d="M592.354 0H327.983v331.407h264.371V0z"/>
        <path fill="#EFEFEF" d="M586.845 325.894V5.504H333.491v320.39h253.354z"/>
        <path fill="#F9F9F9" d="M547.599 168.546v18.737H535.97v-40.951h-14.951v40.951h-8.209v36.125h-16.949v-23.636h-17.11v-20.085h-9.656v-40.926h-24.527v112.187h-17.401v-41.811h-24.904V188.6h-16.102v20.537h-7.609v-47.748h-35.686v41.501h-9.372v95.466h253.354v-129.81h-39.249z"/>
        <path fill="#4B4B6D" d="M419.78 325.898V5.508h-5.505v320.39h5.505z"/>
        <path fill="#4B4B6D" d="M333.492 99.775h253.354v-5.506H333.492v5.506z"/>
        <path fill="#4B4B6D" d="M506.068 325.897V5.507h-5.506v320.39h5.506z"/>
        <path fill="#616D7D" d="M537.887 309.721h-13.643l-6.821-15.469h13.643l6.821 15.469z"/>
        <path fill="#7590A2" d="M536.359 309.721h-13.65l-6.821-15.469h13.643l6.828 15.469z"/>
        <path fill="#758798" d="M538.988 307.703h-26.191c-.554 0-1.009.455-1.009 1.009 0 .555.455 1.009 1.009 1.009h26.191a1.008 1.008 0 1 0 0-2.018z"/>
        <path fill="#616D7D" d="M498.771 299.503c-2.523 0-4.285-2.053-3.93-4.576l5.926-41.909c.355-2.522 2.7-4.576 5.223-4.576h53.889c2.523 0 4.285 2.054 3.929 4.576l-5.926 41.909c-.355 2.523-2.7 4.576-5.222 4.576h-53.889z"/>
        <path fill="#758798" d="M496.276 299.503c-2.522 0-4.284-2.053-3.929-4.576l5.926-41.909c.355-2.522 2.7-4.576 5.223-4.576h53.889c2.522 0 4.285 2.054 3.929 4.576l-5.926 41.909c-.355 2.523-2.7 4.576-5.222 4.576h-53.89z"/>
        <path fill="#F7F6F0" d="M496.76 296.135c-1.464 0-2.48-1.186-2.274-2.65L500 254.468c.206-1.464 1.563-2.651 3.02-2.651h53.889c1.464 0 2.48 1.187 2.274 2.651l-5.514 39.017c-.206 1.464-1.564 2.65-3.02 2.65H496.76z"/>
        <path fill="#BCCACE" d="M555.708 261.097H501.67c-.54 0-.917-.44-.839-.98l.356-2.487c.078-.54.582-.981 1.122-.981h54.039c.54 0 .916.441.838.981l-.355 2.487c-.078.54-.583.98-1.123.98zM505.087 287.41h-7.141c-.575 0-.973-.469-.895-1.045l3.219-22.368c.085-.576.618-1.045 1.194-1.045h7.141c.575 0 .973.469.895 1.045l-3.219 22.368c-.085.583-.618 1.045-1.194 1.045zM552.731 280.304h-18.994c-.575 0-.973-.469-.895-1.045l2.196-15.262c.085-.576.618-1.045 1.193-1.045h18.994c.575 0 .973.469.895 1.045l-2.195 15.262c-.086.576-.619 1.045-1.194 1.045zM553.399 282.912c.092-.618-.277-1.123-.81-1.123h-19.136c-.54 0-1.044.505-1.137 1.123l-1.208 8.399h21.076l1.215-8.399zM530.98 275.074c.093-.618-.277-1.122-.81-1.122h-7.283c-.54 0-1.045.504-1.137 1.122l-2.338 16.237h9.231l2.337-16.237zM505.741 290.088c.092-.618-.277-1.122-.81-1.122h-7.283c-.54 0-1.045.504-1.137 1.122l-.178 1.216h9.23l.178-1.216zM517.686 278.883h-7.142c-.575 0-.973-.469-.895-1.045l1.99-13.841c.085-.576.618-1.045 1.194-1.045h7.141c.575 0 .973.469.895 1.045l-1.99 13.841c-.085.576-.618 1.045-1.193 1.045zM523.491 262.952l-1.215 8.456c-.092.618.277 1.122.81 1.122h7.283c.54 0 1.045-.504 1.137-1.122l1.215-8.456h-9.23zM518.695 281.42c.092-.619-.277-1.123-.81-1.123h-7.284c-.54 0-1.044.504-1.136 1.123l-1.422 9.884h9.231l1.421-9.884z"/>
        <path fill="#CC346F" d="M505.023 269.304h-4.284l.71-4.931h4.285l-.711 4.931z"/>
        <path fill="#F7F6F0" d="M500.533 270.74l-.121.845h6.921l.121-.845h-6.921zm-.348 2.437h6.92l.121-.846h-6.921l-.12.846zm-.228 1.585h6.921l.121-.846h-6.921l-.121.846zm-.234 1.591h6.921l.12-.845h-6.921l-.12.845zm-.228 1.585h3.383l.12-.846h-3.382l-.121.846z"/>
        <path fill="#FDD247" fill-rule="evenodd" d="M516.392 269.304h-4.284l.71-4.931h4.285l-.711 4.931z" clip-rule="evenodd"/>
        <path fill="#F7F6F0" d="M511.902 270.74l-.121.845h6.921l.121-.845h-6.921zm-.348 2.437h6.92l.121-.846h-6.921l-.12.846zm-.228 1.585h6.921l.121-.846h-6.921l-.121.846zm-.227 1.591h6.921l.12-.845h-6.92l-.121.845zm-.228 1.585h3.383l.12-.846h-3.382l-.121.846z"/>
        <path fill="#70A0FE" d="M526.511 280.304h-4.278l.704-4.931h4.285l-.711 4.931z"/>
        <path fill="#F7F6F0" d="M522.027 281.739l-.121.846h6.921l.121-.846h-6.921zm-.355 2.43h6.921l.121-.845h-6.921l-.121.845zm-.227 1.592h6.92l.121-.845h-6.921l-.12.845zm-.228 1.592h6.921l.121-.846h-6.921l-.121.846zm-.227 1.584h3.382l.121-.845h-3.382l-.121.845zM524.614 263.719l-.121.846h6.921l.121-.846h-6.921zm-.349 2.438h6.921l.121-.846h-6.921l-.121.846zm-.227 1.591h3.212l.121-.845h-3.212l-.121.845z"/>
        <path fill="#70A0FE" d="M553.789 269.304h-18.218l.71-4.931H554.5l-.711 4.931z"/>
        <path fill="#F7F6F0" d="M535.364 270.74l-.12.845h18.219l.12-.845h-18.219zm-.348 2.437h10.808l.121-.846h-10.808l-.121.846z"/>
        <path fill="#818BEA" fill-rule="evenodd" d="M513.891 286.72h-4.284l.71-4.931h4.285l-.711 4.931z" clip-rule="evenodd"/>
        <path fill="#F7F6F0" d="M509.401 288.156l-.121.845h6.921l.12-.845h-6.92zm-.356 2.437h4.448l.121-.846h-4.448l-.121.846z"/>
        <path fill="#66BCD5" fill-rule="evenodd" d="M502.856 284.368h-4.284l.71-4.931h4.285l-.711 4.931z" clip-rule="evenodd"/>
        <path fill="#F7F6F0" d="M498.365 285.804l-.12.845h6.921l.12-.845h-6.921z"/>
        <path fill="#616D7D" d="M598.448 309.721h13.65l6.822-15.469h-13.643l-6.829 15.469z"/>
        <path fill="#7590A2" d="M599.983 309.721h13.65l6.822-15.469h-13.65l-6.822 15.469z"/>
        <path fill="#758798" d="M597.347 307.703h26.191c.555 0 1.01.455 1.01 1.009 0 .555-.455 1.009-1.01 1.009h-26.191a1.013 1.013 0 0 1-1.009-1.009c0-.554.455-1.009 1.009-1.009z"/>
        <path fill="#616D7D" d="M637.565 299.503c2.522 0 4.285-2.053 3.929-4.576l-5.926-41.909c-.355-2.522-2.7-4.576-5.222-4.576h-53.89c-2.522 0-4.284 2.054-3.929 4.576l5.926 41.909c.355 2.523 2.7 4.576 5.223 4.576h53.889z"/>
        <path fill="#758798" d="M640.059 299.503c2.523 0 4.285-2.053 3.929-4.576l-5.926-41.909c-.355-2.522-2.7-4.576-5.222-4.576h-53.89c-2.522 0-4.284 2.054-3.929 4.576l5.926 41.909c.355 2.523 2.7 4.576 5.223 4.576h53.889z"/>
        <path fill="#F7F6F0" d="M639.583 296.135c1.464 0 2.48-1.186 2.274-2.65l-5.514-39.017c-.206-1.464-1.563-2.651-3.02-2.651h-53.889c-1.464 0-2.48 1.187-2.274 2.651l5.514 39.017c.206 1.464 1.563 2.65 3.02 2.65h53.889z"/>
        <g clip-path="url(#b)">
            <path fill="#fff" fill-rule="evenodd" d="M632.233 257.046h-50.109c-1.408 0-2.424 1.152-2.249 2.566l3.346 27.263c.174 1.408 1.47 2.567 2.878 2.567h50.109c1.408 0 2.423-1.152 2.249-2.567l-3.346-27.263c-.174-1.414-1.47-2.566-2.878-2.566z" clip-rule="evenodd"/>
            <path fill="#8EDEF1" fill-rule="evenodd" d="M584.679 284.863h51.828l-3.233-26.322h-51.828l3.233 26.322z" clip-rule="evenodd"/>
            <path fill="#121F54" d="M603.201 266.466c-.91.243-1.377.859-1.389 1.806-.013.891.212 1.795.218 2.685.006.374-.031.761-.218 1.072-.249.411-1.091.567-1.122.573l.206 1.689s.187.024.567.137c.529.155.841.548 1.034 1.046.567 1.408.006 3.421 1.414 4.505.642.492 1.651.592 2.661.592l-.225-1.826c-.155 0-.691.013-.847-.037-.393-.131-.561-.399-.642-.773-.342-1.595-.199-3.532-1.95-4.486.767-.548 1.047-1.264 1.022-2.249-.012-.486-.062-.978-.106-1.464-.031-.33-.131-.741-.068-1.059.068-.355.305-.479.647-.529.169-.025.493.043.63-.031l-.218-1.757c-.355-.15-1.327.031-1.614.106zM615.63 270.328c-.125-.828-.131-1.75-.498-2.548-.38-.828-1.153-1.252-1.994-1.364a7.782 7.782 0 0 0-1.14-.063c-.156 0-.218-.012-.243 0l.218 1.776c.143.019.461 0 .548.006.33.031.673.075.866.411.237.399.218 1.022.281 1.446.062.405.124.81.211 1.215.212.978.692 1.701 1.583 2.243-1.065.629-1.065 1.831-.972 3.009.069.853.492 2.174-.629 2.292-.312.032-.505-.037-.58.069l.218 1.701c.044.012.1.018.2.031a3.975 3.975 0 0 0 1.539-.131c1.464-.449 1.395-1.738 1.246-3.115-.137-1.265-.393-2.816 1.165-2.959l-.218-1.77s-.686-.137-.891-.268c-.686-.423-.804-1.308-.91-1.981zM606.005 272.004h6.012l-.2-1.595h-6.005l.193 1.595zM606.279 274.247h6.012l-.2-1.595h-6.005l.193 1.595zM606.553 276.49h3.489l-.2-1.595h-3.482l.193 1.595z"/>
            <path fill="#8EDEF1" d="M584.679 284.882h6.448l-3.233-26.341h-6.448l3.233 26.341zM633.081 284.882h3.433l-3.24-26.341h-3.427l3.234 26.341z"/>
            <path fill="#fff" d="M582.878 264.528h2.038l-.218-1.788h-2.038l.218 1.788zM585.775 264.528h2.038l-.218-1.788h-2.038l.218 1.788zM583.202 267.132h2.038l-.225-1.788h-2.037l.224 1.788zM586.093 267.132h2.037l-.218-1.788h-2.037l.218 1.788zM583.52 269.73h2.037l-.218-1.782h-2.037l.218 1.782zM586.417 269.73h2.037l-.224-1.782h-2.037l.224 1.782zM583.838 272.334h2.037l-.218-1.788h-2.037l.218 1.788zM586.735 272.334h2.037l-.218-1.788h-2.037l.218 1.788zM584.156 274.939h2.037l-.218-1.788h-2.037l.218 1.788zM587.053 274.939h2.037l-.218-1.788h-2.037l.218 1.788zM584.48 277.536h2.037l-.225-1.781h-2.031l.219 1.781zM587.377 277.536h2.037l-.224-1.781h-2.038l.225 1.781zM585.208 283.474h2.038l-.48-3.875h-2.037l.479 3.875zM588.106 283.474h2.037l-.48-3.875h-2.037l.48 3.875zM633.604 283.474h2.037l-.292-2.38h-2.038l.293 2.38zM633.062 279.063h2.037l-.293-2.386h-2.037l.293 2.386zM632.52 274.646h2.037l-.293-2.386h-2.037l.293 2.386zM631.978 270.229h2.037l-.293-2.387h-2.037l.293 2.387zM631.436 265.811h2.037l-.293-2.379h-2.037l.293 2.379z"/>
            <path fill="#3441BE" d="M581.869 261.98h51.829l-.424-3.439h-51.828l.423 3.439z"/>
            <path fill="#fff" d="M589.632 259.469h-5.071a.69.69 0 0 0-.698.791.928.928 0 0 0 .891.792h5.071a.691.691 0 0 0 .698-.792.927.927 0 0 0-.891-.791zM597.357 259.469h-5.071a.69.69 0 0 0-.698.791.928.928 0 0 0 .891.792h5.071a.69.69 0 0 0 .698-.792.927.927 0 0 0-.891-.791zM605.083 259.469h-5.072a.691.691 0 0 0-.698.791.928.928 0 0 0 .891.792h5.072a.69.69 0 0 0 .697-.792.926.926 0 0 0-.89-.791zM612.808 259.469h-5.071a.69.69 0 0 0-.698.791.928.928 0 0 0 .891.792h5.071a.691.691 0 0 0 .698-.792.922.922 0 0 0-.891-.791zM620.533 259.469h-5.071a.69.69 0 0 0-.698.791.928.928 0 0 0 .891.792h5.071a.691.691 0 0 0 .698-.792.916.916 0 0 0-.891-.791z"/>
        </g>
        <path fill="#F2BD89" d="M937.019 295.186h-38.445v63.269h38.445v-63.269z"/>
        <path fill="#E09F60" d="M933.425 354.861h-31.251v-56.075h31.251v56.075zm-30.013-1.237h28.776v-53.601h-28.776v53.601z"/>
        <path fill="#E09F60" d="M932.807 311.189h-30.014v1.237h30.014v-1.237zM932.807 323.591h-30.014v1.238h30.014v-1.238zM917.8 307.477a1.874 1.874 0 1 0 0-3.748 1.874 1.874 0 0 0 0 3.748zM917.8 319.886a1.874 1.874 0 1 0 0-3.748 1.874 1.874 0 0 0 0 3.748zM917.8 332.289a1.875 1.875 0 1 0-.002-3.75 1.875 1.875 0 0 0 .002 3.75z"/>
        <path fill="#DEE5E8" d="M908.051 295.186h4.658a2.39 2.39 0 0 0 2.388-2.388v-5.87h-9.427v5.87a2.376 2.376 0 0 0 2.381 2.388z"/>
        <path fill="#72B2A2" d="M916.043 286.148c1.318-1.367.78-2.356.112-3.346-1.095-1.615-2.172-4.627-3.372-3.662-.334.272.13.866.006 1.28-.352 1.145-1.719 1.12-2.134-.247-.173-.563-.148-1.175-.34-1.738-.464-1.343-2.035-1.386-2.19.42-.049.582.006 1.213-.303 1.708-.309.494-.866-.124-1.41.08-.582.216-.241 1.2-.755 1.546-.618.415-2.431 1.003-1.806 2.939.965 3.006 8.215 5.146 12.192 1.02z"/>
        <path fill="#DEE5E8" d="M919.08 295.186h4.658a2.39 2.39 0 0 0 2.388-2.388v-2.92h-9.427v2.92a2.376 2.376 0 0 0 2.381 2.388z"/>
        <path fill="#72B2A2" d="M927.079 287.262c.427.173.785.526.897.971.043.173.043.346.043.52.006.284.006.575.012.859.013.749.019 1.497.031 2.246.006.458-.049 1.021-.464 1.206-.352.161-.773-.062-.996-.371-.228-.309-.327-.693-.488-1.045-.235-.508-.749-.99-1.293-.854-.532.136-.755.761-.829 1.305-.031.229-.08.495-.291.582-.284.117-.55-.211-.631-.501-.08-.297-.117-.65-.377-.811-.272-.167-.643-.012-.848.235-.204.248-.309.557-.482.829-.173.272-.464.514-.779.47-.508-.074-.668-.779-1.139-.996-.29-.13-.631-.037-.94.056-.396.124-.785.241-1.181.365-.718.223-1.473.464-1.998 1.002a6.945 6.945 0 0 1-.78-3.142c-.006-.545.068-1.114.371-1.559.483-.712 1.405-.947 2.24-1.12-.235-.668.092-1.509.748-1.775.662-.266 1.522.185 1.621.891.47-.755.94-1.516 1.41-2.271.167-.266.334-.538.575-.748.242-.204.557-.34.873-.285.569.106.835.817.711 1.38-.074.328-.247.68-.105.983.155.334.618.415.971.291.346-.124.625-.396.928-.606.235-.161.507-.297.792-.278.284.018.569.235.581.519.006.217-.136.408-.291.563-.154.155-.327.297-.414.501-.161.39.056.47.334.464.414.006.786-.043 1.188.124z"/>
        <path fill="#5A9E8D" d="M808.756 358.455h-124.93a8.413 8.413 0 0 1-8.412-8.413v-45.25a8.413 8.413 0 0 1 8.412-8.412h124.93a8.413 8.413 0 0 1 8.412 8.412v45.25a8.413 8.413 0 0 1-8.412 8.413z"/>
        <path fill="#72B2A2" d="M689.801 358.455h-6.019a8.365 8.365 0 0 1-8.363-8.364v-45.348a8.365 8.365 0 0 1 8.363-8.363h6.019a8.364 8.364 0 0 1 8.363 8.363v45.348c-.006 4.621-3.748 8.364-8.363 8.364zM700.503 350.091v-6.018a8.366 8.366 0 0 1 8.364-8.364h74.848a8.366 8.366 0 0 1 8.364 8.364v6.018a8.366 8.366 0 0 1-8.364 8.364h-74.848a8.366 8.366 0 0 1-8.364-8.364zM808.805 358.455h-6.019a8.365 8.365 0 0 1-8.363-8.363v-45.349a8.365 8.365 0 0 1 8.363-8.363h6.019a8.364 8.364 0 0 1 8.363 8.363v45.349a8.36 8.36 0 0 1-8.363 8.363z"/>
        <path fill="#477D70" d="M727.437 333.124a.62.62 0 0 1-.619-.619v-33.478a.62.62 0 0 1 1.237 0v33.472a.618.618 0 0 1-.618.625zM765.146 333.124a.62.62 0 0 1-.619-.619v-33.478a.62.62 0 0 1 1.237 0v33.472a.622.622 0 0 1-.618.625zM686.789 310.032a3.587 3.587 0 0 1-3.581-3.582 3.587 3.587 0 0 1 3.581-3.581 3.583 3.583 0 0 1 3.582 3.581 3.587 3.587 0 0 1-3.582 3.582zm0-5.932a2.346 2.346 0 0 0-2.344 2.344 2.347 2.347 0 0 0 2.344 2.345 2.348 2.348 0 0 0 2.345-2.345 2.347 2.347 0 0 0-2.345-2.344zM805.793 310.032a3.584 3.584 0 0 1-3.582-3.582 3.587 3.587 0 0 1 3.582-3.581 3.587 3.587 0 0 1 3.581 3.581 3.579 3.579 0 0 1-3.581 3.582zm0-5.932a2.347 2.347 0 0 0-2.345 2.344 2.348 2.348 0 0 0 2.345 2.345 2.347 2.347 0 0 0 2.344-2.345 2.338 2.338 0 0 0-2.344-2.344z"/>
        <path fill="#8AA4F8" d="M970.594 357.509H0v261.16h970.594v-261.16z" opacity=".8"/>
        <path fill="#F0AD82" d="M290.576 188.383L273.167 390.93h3.383l17.415-202.547h-3.389zM318.515 390.93h3.39l-6.608-88.8h-3.39l6.608 88.8zm73.629-88.8l6.608 88.8h3.39l-6.609-88.8h-3.389z"/>
        <path fill="#C27C50" d="M411.479 333.338H300.602l-11.973-160.942h110.877l11.973 160.942z"/>
        <path fill="#fff" d="M303.743 329.949l-11.476-154.171h104.105l11.468 154.171H303.743z"/>
        <path fill="#FDD247" fill-rule="evenodd" d="M325.11 293.192h-14.24l-1.059-14.24h14.24l1.059 14.24z" clip-rule="evenodd"/>
        <path fill="#A2D1EB" d="M311.182 297.327l.185 2.444h23.001l-.185-2.444h-23.001zm.519 7.035h23.001l-.185-2.445h-23.001l.185 2.445zm.341 4.59h23.001l-.185-2.445h-23.001l.185 2.445zm.341 4.583h23.001l-.184-2.444h-23.001l.184 2.444zm.341 4.59h11.234l-.184-2.444H312.54l.184 2.444z"/>
        <path fill="#979DFE" d="M355.799 293.192h-14.24l-1.066-14.24h14.247l1.059 14.24z"/>
        <path fill="#A2D1EB" d="M341.865 297.327l.184 2.444h23.001l-.184-2.444h-23.001zm.526 7.035h23.001l-.185-2.445h-23.001l.185 2.445zm.341 4.59h23.001l-.185-2.445h-23.001l.185 2.445zm.341 4.583h23.001l-.185-2.444h-23.001l.185 2.444zm.341 4.59h11.234l-.185-2.444h-11.234l.185 2.444z"/>
        <path fill="#67BDD4" fill-rule="evenodd" d="M386.481 293.192h-14.24l-1.059-14.24h14.24l1.059 14.24z" clip-rule="evenodd"/>
        <path fill="#A2D1EB" d="M372.547 297.327l.184 2.444h23.001l-.184-2.444h-23.001zm.526 7.035h23l-.184-2.445h-23.001l.185 2.445zm.341 4.59h23.001l-.185-2.445h-23.001l.185 2.445zm.341 4.583h23.001l-.185-2.444H373.57l.185 2.444zm.341 4.59h11.234l-.185-2.444h-11.234l.185 2.444zM304.922 213.21l.036.441h84.365l-.035-.441h-84.366zM305.505 221.055h84.365l-.028-.441h-84.365l.028.441zM306.059 228.459h84.366l-.036-.433h-84.365l.035.433zM306.606 235.87h84.366l-.029-.44h-84.365l.028.44zM307.161 243.274h84.365l-.036-.433h-84.365l.036.433zM307.708 250.685h84.365l-.028-.44h-84.366l.029.44zM308.262 258.09h84.365l-.035-.434h-84.365l.035.434z"/>
        <path fill="#67BDD4" fill-rule="evenodd" d="M308.07 255.56l11.582-10.765c1.23-1.144 3.354-1.144 4.754 0l3.254 2.657c1.4 1.144 3.525 1.144 4.754 0 1.229-1.144 3.354-1.144 4.754 0l4.775 3.901c1.4 1.144 3.524 1.144 4.753 0l12.67-11.781c1.229-1.144 3.354-1.144 4.754 0l6.785 5.543c1.4 1.144 3.525 1.144 4.754 0l2.189-2.04c1.229-1.144 3.353-1.144 4.753 0l9.472 7.731 1.109 14.894h-84.351l-.761-10.14z" clip-rule="evenodd"/>
        <path fill="#979DFE" d="M362.109 231.102h-13.075c-1.662 0-3.112-1.35-3.24-3.012-.121-1.663 1.123-3.013 2.793-3.013h13.074c1.663 0 3.112 1.35 3.24 3.013.114 1.662-1.13 3.012-2.792 3.012zM387.064 223.833h-13.075c-1.663 0-3.112-1.35-3.24-3.013-.121-1.662 1.123-3.012 2.793-3.012h13.074c1.663 0 3.112 1.35 3.24 3.012.121 1.663-1.13 3.013-2.792 3.013zM338.994 238.506H325.92c-1.663 0-3.113-1.35-3.241-3.012-.12-1.663 1.123-3.013 2.786-3.013h13.074c1.663 0 3.113 1.35 3.24 3.013.128 1.669-1.122 3.012-2.785 3.012z"/>
        <path fill="#A2D1EB" d="M370.11 188.383h-49.704l.227 3.084h49.704l-.227-3.084zm-66.197 5.926l.228 3.084h83.569l-.227-3.084h-83.57zm9.138 9.01h66.637l-.227-3.083h-66.637l.227 3.083z"/>
        <path fill="#616D7D" d="M223.576 309.672H209.94l-6.821-15.462h13.642l6.815 15.462z"/>
        <path fill="#7590A2" d="M222.048 309.672h-13.643l-6.821-15.462h13.642l6.822 15.462z"/>
        <path fill="#758798" d="M224.677 307.653H198.5c-.554 0-1.009.455-1.009 1.01 0 .554.455 1.008 1.009 1.008h26.177a1.009 1.009 0 1 0 0-2.018z"/>
        <path fill="#616D7D" d="M184.48 299.461c-2.522 0-4.277-2.054-3.922-4.569l5.919-41.881c.355-2.522 2.7-4.569 5.216-4.569h53.86c2.523 0 4.278 2.054 3.923 4.569l-5.919 41.888c-.356 2.522-2.7 4.569-5.216 4.569H184.48v-.007z"/>
        <path fill="#758798" d="M181.993 299.461c-2.522 0-4.277-2.054-3.922-4.569l5.919-41.881c.355-2.522 2.7-4.569 5.216-4.569h53.86c2.523 0 4.278 2.054 3.923 4.569l-5.919 41.888c-.356 2.522-2.7 4.569-5.216 4.569h-53.861v-.007z"/>
        <path fill="#F7F6F0" d="M182.469 296.093c-1.463 0-2.479-1.187-2.273-2.651l5.514-38.996c.206-1.463 1.556-2.65 3.019-2.65h53.861c1.464 0 2.48 1.187 2.274 2.65l-5.514 38.996c-.206 1.464-1.556 2.651-3.02 2.651h-53.861z"/>
        <path fill="#8AA4F8" d="M241.382 261.076h-54.01c-.54 0-.916-.441-.838-.981l.355-2.487c.078-.54.583-.98 1.123-.98h54.01c.54 0 .917.44.838.98l-.355 2.487c-.078.54-.576.981-1.123.981z"/>
        <path fill="#BCCACE" d="M233.068 292.585h-48.34c-1.42 0-2.403-.808-2.21-1.8l4.27-26.285c.211-.992 1.526-1.8 2.947-1.8h47.995c1.421 0 2.403.808 2.21 1.8l-3.926 26.285c-.21 1.004-1.526 1.8-2.946 1.8z"/>
        <path fill="#F7F6F0" d="M186.98 270.711l-.121.846h49.124l.12-.846H186.98zm-.349 2.437h49.124l.121-.845h-49.124l-.121.845zm-.227 1.585h49.124l.121-.846h-49.124l-.121.846zm-.234 1.592h49.123l.121-.846H186.29l-.12.846zm-.228 1.584h45.585l.121-.845h-45.585l-.121.845z"/>
        <path fill="#CDF" d="M206.033 269.93h-18.204l.71-4.931h18.205l-.711 4.931z"/>
        <path fill="#F7F6F0" d="M184.681 284.504l-.121.846 49.124-.001.121-.845h-49.124zm-.348 2.437h49.123l.121-.845h-49.123l-.121.845zm-.228 1.585h49.124l.121-.846h-49.124l-.121.846zm-.234 1.591h49.124l.12-.845h-49.123l-.121.845zm-.228 1.585h45.586l.12-.846h-45.585l-.121.846z"/>
        <path fill="#CDF" d="M203.735 283.723H185.53l.711-4.931h18.204l-.71 4.931z"/>
        <path fill="#6370C7" d="M98.51 287.111v.036c.141-.022.283-.036.426-.036a2.841 2.841 0 0 1 2.828 2.572l4.817 50.628a2.01 2.01 0 0 0 2.004 1.826h30.469a2.842 2.842 0 1 1 0 5.685h-30.462a7.668 7.668 0 0 1-5.841-2.7c-1.677.127-8.164.682-8.164.682l-6.65-2.118-6.04-56.575h16.612z"/>
        <path fill="#828FEB" d="M91.539 342.137a2.003 2.003 0 0 1-2.004-1.826l-4.818-50.628a2.846 2.846 0 0 0-2.828-2.572 2.842 2.842 0 0 0-2.828 3.112l4.818 50.614a7.692 7.692 0 0 0 7.667 6.978h30.462a2.842 2.842 0 1 0 0-5.685h-30.47v.007z"/>
        <path fill="#9797C2" d="M113.403 347.822h-4.619v42.96h4.619v-42.96z"/>
        <path fill="#4B4B6D" d="M94.622 390.775a4.618 4.618 0 0 1 4.62-4.618h23.696a4.618 4.618 0 0 1 4.619 4.618H94.622zM113.204 352.241h-4.221a4.228 4.228 0 0 1-3.56-1.947l-1.592-2.479h14.524l-1.591 2.479a4.237 4.237 0 0 1-3.56 1.947z"/>
        <path fill="#A2D1EB" d="M162.332 305.543l-18.674 1.492a1.318 1.318 0 0 0-1.215 1.315c0 .732.59 1.321 1.322 1.321h18.674c.732 0 1.321-.589 1.321-1.321v-1.492a1.33 1.33 0 0 0-1.428-1.315z"/>
        <path fill="#D0D9DF" d="M163.98 313.957l-7.085 76.85 2.123.196 7.084-76.85-2.122-.196zM249.784 313.986l-2.122.196 7.107 76.851 2.123-.197-7.108-76.85z"/>
        <path fill="#62C1C5" d="M267.702 314.077H146.046a2.205 2.205 0 0 1-2.203-2.203c0-1.215.988-2.202 2.203-2.202h121.656c1.215 0 2.202.987 2.202 2.202a2.209 2.209 0 0 1-2.202 2.203z"/>
        <path fill="#EBE8D6" d="M438.726 287.073v.036c.142-.021.284-.036.426-.036a2.84 2.84 0 0 1 2.828 2.573l4.818 50.649a2.003 2.003 0 0 0 2.003 1.826h30.484a2.841 2.841 0 1 1 0 5.684h-30.484a7.688 7.688 0 0 1-5.847-2.7c-1.677.128-8.172.682-8.172.682l-6.658-2.117-6.047-56.604h16.649v.007z"/>
        <path fill="#D9D5BF" d="M431.748 342.128a2.004 2.004 0 0 1-2.004-1.826l-4.817-50.649a2.846 2.846 0 0 0-2.828-2.572 2.839 2.839 0 0 0-2.829 3.112l4.818 50.642a7.704 7.704 0 0 0 7.667 6.985h30.483a2.842 2.842 0 1 0 0-5.685h-30.49v-.007z"/>
        <path fill="#B8B395" d="M453.626 347.813h-4.625v42.982h4.625v-42.982z"/>
        <path fill="#B8B395" d="M434.832 390.794a4.626 4.626 0 0 1 4.626-4.625h23.711a4.626 4.626 0 0 1 4.626 4.625h-32.963zM453.427 352.239h-4.22a4.217 4.217 0 0 1-3.56-1.947l-1.592-2.479h14.531l-1.592 2.479a4.247 4.247 0 0 1-3.567 1.947z"/>
        <path fill="#EBE8D6" d="M682.793 287.073v.036a2.917 2.917 0 0 0-.427-.036 2.841 2.841 0 0 0-2.828 2.573l-4.817 50.649a2.004 2.004 0 0 1-2.004 1.826h-30.483a2.84 2.84 0 0 0-2.842 2.842 2.84 2.84 0 0 0 2.842 2.842h30.483a7.689 7.689 0 0 0 5.848-2.7c1.677.128 8.171.682 8.171.682l6.658-2.117 6.047-56.604h-16.648v.007z"/>
        <path fill="#D9D5BF" d="M689.771 342.128a2.003 2.003 0 0 0 2.003-1.826l4.818-50.649a2.845 2.845 0 0 1 2.828-2.572 2.838 2.838 0 0 1 2.828 3.112l-4.818 50.642a7.702 7.702 0 0 1-7.667 6.985H659.28a2.842 2.842 0 1 1 0-5.685h30.491v-.007z"/>
        <path fill="#B8B395" d="M667.892 347.813h4.626v42.982h-4.626v-42.982z"/>
        <path fill="#B8B395" d="M686.687 390.794a4.626 4.626 0 0 0-4.626-4.625h-23.712a4.625 4.625 0 0 0-4.625 4.625h32.963zM668.091 352.239h4.221a4.22 4.22 0 0 0 3.56-1.947l1.592-2.479h-14.531l1.591 2.479a4.25 4.25 0 0 0 3.567 1.947z"/>
        <path fill="#D0D9DF" d="M504.218 313.921l-7.088 76.893 2.122.196 7.089-76.893-2.123-.196zM632.766 313.948l-2.122.196 7.111 76.893 2.123-.196-7.112-76.893z"/>
        <path fill="#62C1C5" d="M650.666 314.054H486.291a2.205 2.205 0 0 1-2.203-2.203c0-1.215.988-2.203 2.203-2.203h164.375c1.215 0 2.203.988 2.203 2.203a2.205 2.205 0 0 1-2.203 2.203z"/>
        <path fill="#60AEDC" d="M37.712 357.853c.2-2.444 1.144-4.761 2.082-7.028 1.52-3.687 3.042-7.375 4.562-11.056.917-2.217 1.833-4.434 2.97-6.544.704-1.301 1.528-2.601 2.786-3.375 1.257-.775 3.04-.874 4.114.142 1.208 1.144 1.044 3.14.355 4.654-.69 1.513-1.79 2.835-2.28 4.427-.64 2.089-.136 4.334-.214 6.523-.092 2.679-1.066 5.237-2.025 7.745-1.03 2.693-2.068 5.393-3.098 8.086-.874 2.288-2.778 5.706-5.84 4.803-2.964-.881-3.61-5.869-3.412-8.377z"/>
        <path fill="#69C2D4" d="M20.51 345.894c.66-2.572.625-5.635-1.265-7.503-1.123-1.116-2.707-1.599-4.107-2.338-3.006-1.57-5.301-4.441-6.175-7.717-.874-3.276-.32-6.907 1.5-9.763 1.356-2.139 3.36-3.837 4.597-6.047 1.037-1.862 1.478-3.979 1.982-6.047.505-2.068 1.108-4.178 2.402-5.869 1.293-1.691 3.439-2.892 5.528-2.494 2.622.49 4.242 3.233 4.725 5.855.483 2.629.185 5.35.718 7.965.668 3.276 2.586 6.133 4.22 9.046 1.635 2.913 3.063 6.189 2.601 9.5-.476 3.439-2.934 6.438-3.02 9.905-.078 3.091 1.755 5.919 2.16 8.989.76 5.791-3.453 10.076-8.818 11.163-4.1.831-7.745.32-8.917-4.256-.931-3.631.98-6.957 1.869-10.389z"/>
        <path fill="#848DEA" d="M27.715 348.836c-1.08-2.409-1.919-5.017-1.713-7.653.292-3.702 2.608-7.098 2.438-10.808-.121-2.572-1.436-4.938-1.855-7.475-.64-3.879.845-7.752 2.302-11.404l4.946-12.385c.923-2.317 2.26-4.967 4.725-5.322 1.869-.27 3.702 1.037 4.569 2.714s.945 3.652.824 5.535c-.114 1.883-.405 3.78-.213 5.656.64 6.168 6.374 11.341 5.606 17.494-.305 2.459-1.648 4.662-2.21 7.07-1.13 4.847.974 9.863.818 14.837-.17 5.5-3.539 11.27-8.492 13.828-4.732 2.458-10.175-8.584-11.745-12.087z"/>
        <path fill="#60AEDC" d="M12.835 348.069c-1.371-1.557-3.346-2.445-4.881-3.837-1.535-1.393-2.608-3.774-1.485-5.514 1.058-1.656 3.382-1.784 5.35-1.741 3.269.078 6.744.227 9.415 2.11 2.33 1.641 3.702 4.555 3.49 7.39-.25 3.325-1.742 5.898.29 8.967.867 1.301 1.84 2.196.363 3.439-2.444 2.047-7.283.754-8.733-1.797-1.634-2.871-1.535-6.438-3.809-9.017z"/>
        <path fill="#F0EBE6" d="M44.733 392.195H22.769l-4.54-29.794h31.044l-4.54 29.794z"/>
        <path fill="#F0EBE6" d="M50.538 362.401H16.964a2.445 2.445 0 0 1 0-4.889h33.574a2.444 2.444 0 0 1 2.444 2.444 2.44 2.44 0 0 1-2.444 2.445z"/>
        <path fill="#FCD2C5" d="M795.002 285.976c.245.307 2.319-.664 2.524-.991.276-.93.266-1.206.112-1.921-.439.674-1.063 1.277-1.676 1.809-.572.511-1.369.664-.96 1.103z"/>
        <path fill="#FCD2C5" d="M797.587 283.074c-.562 2.402-1.308 3.229-1.196 4.292.041.429 4.18 1.451 4.65-.511.031-.122.266-1.43.593-2.933-.899-.419-4.016-.889-4.047-.848zM767.787 242.554c3.199 3.189 15.851 10.445 21.247 15.084 6.612 5.682 8.216-.96 6.765-3.321-3.812-6.234-17.22-21.532-20.664-19.887-1.482.705-7.93 7.552-7.348 8.124z"/>
        <path fill="#FCD2C5" d="M790.117 255.901a2.81 2.81 0 0 0 .01.93c.899 4.803 7.337 21.992 7.481 27.153 1.635-.399 2.973-.092 4.036-.062.378-2.779-3.761-29.973-7.051-30.77-3.025-.736-4.262 1.236-4.476 2.749z"/>
        <path fill="#C8DAEE" d="M802.687 281.378c-.46-7.256-3.281-24.118-6.336-28.788-3.107-4.895-17.895-23.525-22.422-21.287-1.512.746-8.482 11.446-8.226 11.691 1.655 1.594 23.555 15.002 23.995 15.298.582 1.973 1.451 4.589 2.381 7.358 2.013 6.04 4.527 13.551 4.65 16.464l5.958-.736z"/>
        <path fill="#FCD2C5" d="M768.492 320.089c-.183 1.185-7.276 60.468-7.276 60.468-1.533 1.103-3.832.715-3.873.603 0 0-1.492-61.051-1.124-63.78 1.492 1.309 11.231 3.618 12.273 2.709z"/>
        <path fill="#F0F0F0" d="M757.619 380.332l3.291-1.564s.613 1.063 1.134 1.758c.991 1.339 6.081 2.585 5.968 4.394-.061.91-2.023 1.605-3.597 1.574a10.96 10.96 0 0 1-3.74-.756c-.9-.358-2.954-1.349-3.25-1.932-.521-1.011.01-2.115.01-2.115-.102-1.032.184-1.359.184-1.359zM750.375 378.587l-3.615-.502s-.271 1.202-.546 2.021c-.542 1.573-5.02 4.296-4.365 5.98.33.849 2.422.921 3.901.419 1.483-.511 2.735-1.083 3.332-1.844.75-.948 2.406-2.179 2.522-2.823.191-1.126-.648-2.017-.648-2.017-.216-.999-.581-1.234-.581-1.234z"/>
        <path fill="#FCD2C5" d="M746.214 380.106s1.005.799 2.37.987c.772.107 2.372-1.272 2.372-1.272-.207-.995-.497-1.877-.497-1.877H746.6c-.004.009-.006.919-.386 2.162z"/>
        <path fill="#5836E5" d="M739.214 279.375c2.596.991 12.611 1.441 20.255.562 2.207 13.397-2.117 33.09-3.006 51.556-.388 8.176-5.503 47.029-5.503 47.029-1.472 1.788-4.503.5-4.503 0 0 0-4.002-32.52-4.002-44.527-1.501-33.521-3.435-52.474-3.241-54.62z"/>
        <path fill="#FCD2C5" d="M762.044 380.526s-.715 1.073-1.962 1.656c-.705.337-2.647-.501-2.647-.501-.102-1.022-.133-1.707-.133-1.707l3.72-1.4c0 .01.276.879 1.022 1.952z"/>
        <path fill="#5836E5" d="M777.516 275.348c-2.616.951-13.806 1.38-21.44.389 0 0-2.412 39.14-.92 58.189 1.738 22.063 1.881 45.333 1.881 45.333 1.451 1.819 4.649.327 4.701.163.01 0 16.095-99.955 15.778-104.074z"/>
        <path fill="#D7E9FF" d="M739.347 271.915s-.746 8.124-.746 15.155c0 0 7.266 2.974 15.758 2.964l2.371-7.001s3.27 7.092 4.517 7.113c6.99.174 14.092-.593 18.865-3.475l-2.637-10.607-38.128-4.149z"/>
        <path fill="#F7B690" d="M760.46 217.159c.521.409 5.948 3.679 7.532 3.505-.031.44-1.257 5.028-.327 7.563-.521 2.299-6.939 2.084-8.574-1.901.787-1.104 1.614-7.021 1.369-9.167z"/>
        <path fill="#C8DAEE" d="M743.823 237.291c1.298-4.098 3.74-8.471 8.707-9.483 1.655-.337 6.571-1.502 6.571-1.502s3.342 3.116 5.621 3.372c1.563.174 2.953-1.472 2.953-1.472s5.57 1.911 6.571 2.545c3.894 2.453 4.578 6.408 3.934 9.576-2.258 11.057 2.698 36.902-.654 38.353-4.363 1.89-28.798 3.127-38.169-3.046-.787-.511-1.185-1.43-1.104-2.36.532-5.662 2.647-26.744 5.57-35.983z"/>
        <path fill="#FCD2C5" d="M694.085 240.572c-.797-.47-1.676-.9-2.565-1.268-1.063-.449-3.525-1.175-3.699-1.236-.511-.123-1.748-.593-2.167-.562-.265.01-.96.358-1.144.623-.235.358.061.736.061.736-.399.399.777 1.185.654 1.257-.48.307-.204 1.063 1.748 1.594.122.031 4.649 2.279 6.152 2.872.439-.889 1.001-3.986.96-4.016zM744.191 232.171c-4.282 1.452-16.412 9.545-22.963 12.304-8.032 3.393-2.8 7.788-.041 7.542 7.276-.633 26.949-5.845 27.01-9.647.031-1.655-3.229-10.464-4.006-10.199z"/>
        <path fill="#FCD2C5" d="M722.301 246.223a2.883 2.883 0 0 0-.838-.409c-4.701-1.328-22.963-3.219-27.643-5.385-.368 1.635-.787 2.974-1.298 3.914 7.767 3.403 28.062 9.698 30.249 7.102 2.003-2.381.797-4.363-.47-5.222z"/>
        <path fill="#C8DAEE" d="M693.891 246.131c6.704 2.821 23.055 7.797 28.604 7.143 5.764-.602 26.233-5.784 26.243-10.832 0-1.686 3.23-14.512 1.656-13.929-13.735 5.028-29.585 16.003-30.045 16.269-2.023-.358-4.762-.736-7.644-1.144-6.305-.879-14.154-1.983-16.811-3.168l-2.003 5.661z"/>
        <path fill="#222B56" d="M767.982 236.668c-1.656-6.111-1.094-8.543-.655-11.16.45-2.687.747-5.467-.04-7.562.051-.071 3.893-4.343 5.314-2.238a16.065 16.065 0 0 1 .562 8.962c-1.063 4.742.276 8.299 1.114 9.842 1.39 2.555 1.522 6.07 1.42 7.746-.593 9.76-6.254 14.583-7.961 13.674-1.88-1.002 2.616-10.486.246-19.264z"/>
        <path fill="#FCD2C5" d="M767.098 209.133c3.097-.098 5.553 1.242 6.129 4.193.206 1.056-.587 10.509-5.673 11.761-2.152.534-6.118-3.267-6.194-5.761 0 0-.109-3.397-.109-3.43-.098-3.322 2.521-6.654 5.847-6.763z"/>
        <path fill="#222B56" d="M749.75 241.113c-.204-1.9-.071-5.906 2.024-8.85 1.257-1.768 3.26-5.845 1.482-11.22-1.768-5.366.081-10.506 3.076-13.899 2.994-3.403 7.133-4.323 9.381-3.382 2.8 1.175 2.81 2.554 2.81 2.554s1.431-.327 2.995.522c3.382 1.839 3.127 9.483.459 11.854 1.789-8.216-3.362-9.514-3.362-9.514s-3.597.368-5.355 2.442c-1.604 1.891-3.209 6.97-2.238 10.843.736 2.964 3.035 5.099.613 12.09-3.474 10.045 3.771 20.735.869 21.91-2.637 1.083-11.589-4.262-12.754-15.35z"/>
        <path fill="#FCD2C5" d="M761.697 214.308c.306.02.868.174 1.287.491-.337 1.042-1.103 2.697-1.481 3.525-.736-.265-1.574-1.492-1.513-2.258.051-.797.899-1.819 1.707-1.758z"/>
        <path fill="#222B54" fill-rule="evenodd" d="M846.426 334.241c-1.22 2.228-2.853 4.746-4.99 5.371-1.48.428-5.356-2.319-6.088-3.418-.733-1.099 5.707-54.279 7.767-57.514 2.762-4.349 21.623 1.648 20.417 9.187-1.556 9.628-5.05 19.883-9.003 29.42a171.935 171.935 0 0 1-8.103 16.954z" clip-rule="evenodd"/>
        <path fill="#222B54" fill-rule="evenodd" d="M847.891 339.978c.717-.61 1.145-1.495 1.557-2.334a471.242 471.242 0 0 0 15.046-35.372c1.266-3.342 2.518-6.882 2.045-10.423-.473-3.555-3.281-7.05-6.852-7.034-3.159.015-5.661 2.624-7.554 5.157-5.127 6.837-8.835 14.726-10.941 23.012a66.226 66.226 0 0 0-1.968 13.047c-.138 2.808-.885 6.699-.107 9.446.87 3.159 5.554 7.233 8.774 4.501z" clip-rule="evenodd"/>
        <path fill="#F4A086" d="M839.559 383.606a13.73 13.73 0 0 1-6.302-.519c.275-2.502.565-4.99.839-7.492.031-.321.077-.641.26-.916.274-.397.763-.549 1.221-.626 1.739-.305 4.379-.396 4.318 1.771-.076 2.609-.229 5.188-.336 7.782z"/>
        <path fill="#222B54" fill-rule="evenodd" d="M836.217 328.122c2.442-4.426 8.866-7.447 12.208.213 5.112 11.689-6.806 33.556-7.798 47.672h-7.233c-.29-1.359 1.481-45.429 2.823-47.885z" clip-rule="evenodd"/>
        <path fill="#0A3C5F" fill-rule="evenodd" d="M881.508 291.636c-1.755 1.388-4.09 1.602-6.272 1.602-17.976 0-28.367-5.86-25.895-14.13 2.548-8.5 18.632-7.127 27.04-4.395 1.816.595 4.456 1.159 5.692 2.853 1.8 2.457 3.708 10.697-.565 14.07z" clip-rule="evenodd"/>
        <path fill="#F4A086" d="M851.599 233.42c-3.464 7.538-7.981 14.909-14.741 19.685-1.465 1.038-3.357 1.953-4.959 1.144-.931-.473-1.526-1.465-1.74-2.487-.213-1.022-.091-2.09.092-3.113 1.449-8.103 6.653-14.954 11.719-21.425 2.091-2.67 5.356-7.553 9.049-8.026 3.846-.488 3.479 5.371 2.961 7.63-.504 2.289-1.404 4.471-2.381 6.592z"/>
        <path fill="#FDD247" fill-rule="evenodd" d="M861.213 216.985c-1.023-1.068-8.195.855-9.507 1.358-7.905 3.068-12.971 9.721-17.061 17.351l13.826 6.241c3.357-6.028 13.718-23.943 12.742-24.95z" clip-rule="evenodd"/>
        <path fill="#0A3C5F" fill-rule="evenodd" d="M884.301 285.639c-1.572-7.417-8.5-8.592-14.283-7.081a12.373 12.373 0 0 0-3.449 1.511c-2.197-.26-4.425.778-5.936 2.396-1.541 1.648-2.411 3.845-2.869 6.058-1.282 6.149.336 12.513 2.411 18.433a122.337 122.337 0 0 0 5.982 14.222c2.06 4.136 4.456 9.568 6.959 13.46.274.427 10.925-.153 11.322-2.427a137.275 137.275 0 0 0 1.816-17.197c.382-9.629.061-19.899-1.953-29.375z" clip-rule="evenodd"/>
        <path fill="#F4A086" d="M819.778 228.08c-.229-1.213-.39-2.658.478-3.53.736-.731 1.989-.732 2.922-.263.934.469 14.179 20.541 13.875 26.263-.152 2.877-2.379 4.152-4.96 4.142-3.574-.019-11.477-22.185-12.315-26.612z"/>
        <path fill="#F4A086" d="M823.884 221.908c.474.22 1.023.373 1.296 1.078.299.726.116 1.709-.155 2.434-.764 2.045-2.223 3.206-3.69 3.087-1.455-.14-2.88-1.539-3.733-3.567-.881-2.091-1.17-4.942-.554-7.177.547-1.972 2.5-4.43 3.653-2.348.472.849.835 2.443 1.302 3.509.551 1.215.984 2.562 1.881 2.984z"/>
        <path fill="#FDD247" fill-rule="evenodd" d="M886.788 246.284c1.923-6.669 3.525-14.024 2.472-20.479-3.326-4.074-10.148-9.812-23.652-9.812-9.477 0-16.572 5.86-18.205 8.302-1.74 2.563-1.236 6.18-.778 9.216-.29 5.662 2.945 20.372-1.908 28.796-3.815 6.607-4.242 21.836-3.174 23.942l45.566 3.8c.061-.84 0-11.567 0-12.376-.123-10.453-.229-20.921-.321-31.389z" clip-rule="evenodd"/>
        <path fill="#F7B690" d="M901.346 238.562c-4.288-6.134-10.377-10.987-17.32-13.764-1.251-.503-2.838-.885-3.815.046-.534.504-.717 1.297-.671 2.029.061.733.336 1.435.61 2.106 3.281 7.92 7.676 15.321 12.04 22.707 1.343 2.258 2.701 4.562 4.578 6.409 1.877 1.846 4.349 3.235 6.974 3.265 1.373.016 3.448-.457 4.242-1.739.641-1.038.122-2.869-.015-3.968a39.153 39.153 0 0 0-3.296-11.277 36.563 36.563 0 0 0-3.327-5.814z"/>
        <path fill="#CC346F" fill-rule="evenodd" d="M904.306 240.363a.655.655 0 0 1 .077.137.294.294 0 0 1-.077-.137z" clip-rule="evenodd"/>
        <path fill="#FDD247" fill-rule="evenodd" d="M878.502 225.149c-.412-1.312-.717-2.914.229-3.906 1.007-1.038 3.677-.763 5.036-.275 8.209 3.006 14.374 8.973 18.922 16.465l-15.443 6.715a80.588 80.588 0 0 1-8.744-18.999z" clip-rule="evenodd"/>
        <path fill="#F7B690" d="M880.593 279.031c-.061 1.343 1.19 2.457 2.502 2.701 1.312.229 21.211-16.267 23.882-20.158.808-1.175 1.663-2.594 1.205-3.968-.397-1.22-1.694-1.876-2.914-2.258-2.045-.641-4.609-1.007-6.73-.473-1.465.366-1.846 1.74-2.64 2.869-2.899 4.135-15.275 20.433-15.305 21.287z"/>
        <path fill="#F4A086" d="M864.097 207.143c2.67-4.09 7.416-5.051 9.675-4.075-.855 7.661-.29 11.064 2.64 15.245-6.135 2.396-15.108 1.953-16.45 0 .137-.595 2.762-9.049 4.135-11.17z"/>
        <path fill="#222B56" fill-rule="evenodd" d="M860.755 196.079c-.778.595-1.572 1.328-1.74 2.289-.122.748.138 1.496.412 2.198.336.915.687 1.831 1.023 2.746.763-.976 1.099-2.212 1.495-3.387.397-1.175.931-2.381 1.938-3.113.626-.458 1.465-.794 1.633-1.541.244-1.084-.885-1.572-1.694-1.13-1.068.58-2.106 1.206-3.067 1.938z" clip-rule="evenodd"/>
        <path fill="#F7B690" d="M872.703 197.758c-2.044-4.013-7.782-4.578-10.697-.763-2.67 3.494-2.35 12.116-1.098 14.161 2.182 3.571 8.85 1.404 10.147-.656 1.908-3.022 3.373-9.37 1.648-12.742z"/>
        <path fill="#222B56" fill-rule="evenodd" d="M871.01 198.567c-.306.595-.565 9.201-.321 9.156.885-.168 2.411-2.274 3.922-1.862.488.137 1.099.595 1.312-.382 1.419-6.21 1.602-5.844.611-6.653-2.167-1.77-4.975-1.297-5.524-.259z" clip-rule="evenodd"/>
        <path fill="#F7B690" d="M876.167 205.189a4.07 4.07 0 0 1-1.449 2.656c-2.289 1.861-3.48-1.557-2.671-3.358.977-2.151 4.426-2.09 4.12.702z"/>
        <path fill="#222B56" fill-rule="evenodd" d="M859.308 198.121c.031.58 2.001 1.501 4.713 1.163.564.214 6.867-3.006 7.202-2.96.351.03-.564 2.258-.244 2.578.275.29.733.229 1.114.153 1.709-.29 3.403.168 5.081.626.214-.473.275-1.389.123-1.877-.153-.489-.443-.931-.733-1.358-1.343-1.862-3.22-3.434-5.448-3.876-1.327-.26-2.716-.183-4.059.061-5.188.946-7.795 4.621-7.749 5.49z" clip-rule="evenodd"/>
        <path fill="#FDD247" fill-rule="evenodd" d="M819.508 387.268c-.092-1.037.885-1.892 1.892-2.136 1.007-.244 2.06-.061 3.113-.076 2.961-.031 5.845-1.816 7.203-4.456.183-.366.366-.763.717-.962.473-.259 1.083-.061 1.511.275.412.351.717.809 1.098 1.206a3.694 3.694 0 0 0 2.64 1.053c.809-.016 1.725-.641 2.503-.229.687.366.87 1.312 1.053 1.999.305 1.175.58 2.365.854 3.54.061.259.122.534.153.809h-5.646c-.26-.367-.473-1.45-.595-1.893-.015.458-.199 1.542-.489 1.893h-15.519a1.626 1.626 0 0 1-.488-1.023z" clip-rule="evenodd"/>
        <path fill="#F4A086" d="M905.786 380.569a13.925 13.925 0 0 1-6.058 1.923l-2.426-7.096c-.107-.305-.198-.61-.153-.931.077-.457.474-.778.87-1.037 1.48-.931 3.876-2.015 4.746-.031 1.038 2.381 2.014 4.792 3.021 7.172z"/>
        <path fill="#0A3C5F" fill-rule="evenodd" d="M872.963 334.073c-.077-4.731 4.852-10.514 11.414-4.441 10.575 9.782 14.497 29.268 19.151 43.658l-6.699 2.747c-.992-1.068-23.821-39.339-23.866-41.964z" clip-rule="evenodd"/>
        <path fill="#FDD247" fill-rule="evenodd" d="M898.691 387.436c-.428-.946-.351-1.907-.031-2.289.321-.397.305-2.258.198-4.974-.045-1.237 2-2.427 3.831-1.023.595.458 1.083.717 1.465.534.32-.152.457-.87.93-.625.412.213.855 1.083 1.175 1.678.565 1.038 1.13 2.091 1.679 3.128.122.229.259.473.366.718l-9.049 3.708a3.969 3.969 0 0 1-.564-.855z" clip-rule="evenodd"/>
        <path fill="#F7B690" d="M876.366 276.468c-.748.885 1.77 1.48 2.655 2.227-2.365.123-4.731.26-7.096.382-.412.015-.87.061-1.175.351-.351.336-.366.931-.152 1.373.213.443.61.763 1.022 1.038 2.274 1.541 5.127 2.197 7.828 1.785 1.053-.152 2.106-.488 2.93-1.159.824-.672 1.389-1.74 1.236-2.808-.213-1.633-1.45-1.663-2.67-1.969-.779-.229-4.334-1.526-4.578-1.22z"/>
    </g>
    <defs>
        <clipPath id="b">
            <path fill="#fff" d="M0 0h58.583v32.377H0z" transform="translate(579.857 257.046) scale(1.00061)"/>
        </clipPath>
    </defs>
</svg>
