<svg xmlns="http://www.w3.org/2000/svg" width="1052" height="874" fill="none" viewBox="0 0 1052 874">
    <path fill="#8AA4F8" d="M53.936 544.913c33.012 76.591 123.073 96.083 150.873 102.091 105.415 22.938 154.208 7.964 225.009 33.206 95.887 34.198 157.849 124.494 248.206 179.313 90.358 54.82 260.395-49.613 338.176-252.993 38.14-99.701 65.54-285.882-29.256-397.799-109.076-128.715-338.207-110.155-469.188-34.01-107.425 62.396-138.29 150.674-237.613 148.434-36.534-.799-100.46-14.045-163.158 21.444-60.294 33.764-96.594 122.593-63.049 200.314z" opacity=".2"/>
    <g fill="#00B5A3" opacity=".3">
        <path d="M198.504 346.431h-49.513c-7.436 0-13.464-6.02-13.464-13.447s6.028-13.448 13.464-13.448h49.513v26.895z" opacity=".3"/>
        <path d="M193.944 346.431h60.238c7.437 0 13.464-6.02 13.464-13.447s-6.027-13.448-13.464-13.448h-60.238v26.895z" opacity=".3"/>
        <path d="M194.704 319.7h48.753c-5.242 0-9.494-4.247-9.494-9.482 0-5.235 4.252-9.482 9.494-9.482h-48.753V319.7z" opacity=".3"/>
        <path d="M233.871 319.7h-48.752c5.241 0 9.493-4.247 9.493-9.482 0-5.235-4.252-9.482-9.493-9.482h48.752V319.7zM202.914 365.245h48.752c-5.241 0-9.493-4.247-9.493-9.482 0-5.235 4.252-9.482 9.493-9.482h-48.752v18.964z" opacity=".3"/>
        <path d="M242.087 365.245h-48.752c5.241 0 9.493-4.247 9.493-9.482 0-5.235-4.252-9.482-9.493-9.482h48.752v18.964zM224.063 300.736H174.55c-7.436 0-13.464-6.02-13.464-13.447s6.028-13.448 13.464-13.448h49.513v26.895z" opacity=".3"/>
        <path d="M221.783 300.736h49.513c7.436 0 13.464-6.02 13.464-13.447s-6.028-13.448-13.464-13.448h-49.513v26.895zM240.646 392.166h-49.513c-7.436 0-13.464-6.021-13.464-13.448 0-7.427 6.028-13.447 13.464-13.447h49.513v26.895z" opacity=".3"/>
        <path d="M238.359 392.166h49.513c7.437 0 13.464-6.021 13.464-13.448 0-7.427-6.027-13.447-13.464-13.447h-49.513v26.895z" opacity=".3"/>
        <path d="M255.84 391.865h-34.037a4.737 4.737 0 0 0-4.737 4.731 4.737 4.737 0 0 0 4.737 4.731h34.037a4.737 4.737 0 0 0 4.737-4.731 4.732 4.732 0 0 0-4.737-4.731z" opacity=".3"/>
    </g>
    <g fill="#00B5A3" opacity=".3">
        <path d="M166.419 316.67H129.1c-5.602 0-10.149-4.534-10.149-10.136 0-5.595 4.54-10.136 10.149-10.136h37.319v20.272z" opacity=".3"/>
        <path d="M162.98 316.67h45.398c5.602 0 10.149-4.534 10.149-10.136 0-5.595-4.541-10.136-10.149-10.136H162.98v20.272z" opacity=".3"/>
        <path d="M163.55 296.529h36.743c-3.951 0-7.155-3.2-7.155-7.146 0-3.946 3.204-7.146 7.155-7.146H163.55v14.292z" opacity=".3"/>
        <path d="M193.073 296.529h-36.744c3.951 0 7.155-3.2 7.155-7.146 0-3.946-3.204-7.146-7.155-7.146h36.744v14.292zM169.741 330.851h36.743c-3.95 0-7.154-3.2-7.154-7.146 0-3.946 3.204-7.146 7.154-7.146h-36.743v14.292z" opacity=".3"/>
        <path d="M199.264 330.851h-36.743c3.951 0 7.155-3.2 7.155-7.146 0-3.946-3.204-7.146-7.155-7.146h36.743v14.292zM185.682 282.237h-37.32c-5.601 0-10.149-4.535-10.149-10.136 0-5.595 4.541-10.136 10.149-10.136h37.32v20.272z" opacity=".3"/>
        <path d="M183.959 282.237h37.32c5.601 0 10.148-4.535 10.148-10.136 0-5.595-4.54-10.136-10.148-10.136h-37.32v20.272zM198.177 351.136h-37.32c-5.602 0-10.149-4.535-10.149-10.136 0-5.595 4.54-10.136 10.149-10.136h37.32v20.272z" opacity=".3"/>
        <path d="M196.453 351.136h37.32c5.602 0 10.149-4.535 10.149-10.136 0-5.595-4.541-10.136-10.149-10.136h-37.32v20.272z" opacity=".3"/>
        <path d="M209.629 350.907h-25.65a3.568 3.568 0 0 0-3.571 3.567 3.568 3.568 0 0 0 3.571 3.566h25.644a3.568 3.568 0 0 0 3.57-3.566 3.559 3.559 0 0 0-3.564-3.567z" opacity=".3"/>
    </g>
    <path fill="#92B0FF" d="M677.971 70.959h31.122c4.671 0 8.465 3.782 8.465 8.454 0 4.666-3.787 8.455-8.465 8.455h-31.122v-16.91z"/>
    <path fill="#92B0FF" d="M680.841 70.959h-90.279c-4.671 0-8.465 3.782-8.465 8.454 0 4.666 3.787 8.455 8.465 8.455h90.279v-16.91z"/>
    <path fill="#92B0FF" d="M680.363 87.763h-83.059a5.966 5.966 0 0 1 5.969 5.962 5.966 5.966 0 0 1-5.969 5.96h83.059V87.764z"/>
    <path fill="#92B0FF" d="M603.325 87.763h83.059a5.966 5.966 0 0 0-5.969 5.962 5.966 5.966 0 0 0 5.969 5.96h-83.059V87.764zM675.2 59.134h-83.059a5.966 5.966 0 0 1 5.969 5.962 5.966 5.966 0 0 1-5.969 5.96H675.2V59.135z"/>
    <path fill="#92B0FF" d="M598.163 59.134h83.058a5.966 5.966 0 0 0-5.969 5.962 5.966 5.966 0 0 0 5.969 5.96h-83.058V59.135zM661.906 99.68h31.122c4.671 0 8.465 3.781 8.465 8.454 0 4.665-3.787 8.454-8.465 8.454h-31.122V99.679z"/>
    <path fill="#92B0FF" d="M663.341 99.68h-83.537c-4.671 0-8.465 3.781-8.465 8.454 0 4.665 3.787 8.454 8.465 8.454h83.537V99.679zM599.073 42.212h83.537c4.672 0 8.465 3.782 8.465 8.455 0 4.665-3.787 8.454-8.465 8.454h-83.537V42.212z"/>
    <path fill="#92B0FF" d="M600.508 42.212h-31.121c-4.672 0-8.465 3.782-8.465 8.455 0 4.665 3.787 8.454 8.465 8.454h31.121V42.212z"/>
    <path fill="#92B0FF" d="M589.521 42.402h73.807a2.97 2.97 0 1 0 0-5.942h-73.807a2.97 2.97 0 0 0-2.975 2.97 2.966 2.966 0 0 0 2.975 2.972z"/>
    <path fill="#BDCDFF" d="M556.656 108.625h-31.121c-4.672 0-8.465-3.783-8.465-8.455 0-4.666 3.787-8.454 8.465-8.454h31.121v16.909z"/>
    <path fill="#BDCDFF" d="M553.787 108.625h90.278c4.672 0 8.465-3.783 8.465-8.455 0-4.666-3.787-8.454-8.465-8.454h-90.278v16.909z"/>
    <path fill="#BDCDFF" d="M554.265 91.827h83.058a5.966 5.966 0 0 1-5.968-5.962 5.966 5.966 0 0 1 5.968-5.961h-83.058v11.923z"/>
    <path fill="#BDCDFF" d="M631.302 91.827h-83.065a5.966 5.966 0 0 0 5.969-5.962 5.966 5.966 0 0 0-5.969-5.961h83.059v11.923h.006zM559.428 120.449h83.058a5.967 5.967 0 0 1-5.969-5.961 5.967 5.967 0 0 1 5.969-5.962h-83.058v11.923z"/>
    <path fill="#BDCDFF" d="M636.465 120.449H553.4a5.966 5.966 0 0 0 5.969-5.961 5.966 5.966 0 0 0-5.969-5.962h83.058v11.923h.007zM572.715 79.904h-31.122c-4.671 0-8.465-3.782-8.465-8.455 0-4.665 3.787-8.454 8.465-8.454h31.122v16.909z"/>
    <path fill="#BDCDFF" d="M571.28 79.904h83.537c4.671 0 8.465-3.782 8.465-8.455 0-4.665-3.787-8.454-8.465-8.454H571.28v16.909zM635.554 137.371h-83.536c-4.672 0-8.466-3.782-8.466-8.454 0-4.666 3.787-8.455 8.466-8.455h83.536v16.909z"/>
    <path fill="#BDCDFF" d="M634.12 137.371h31.121c4.672 0 8.465-3.782 8.465-8.454 0-4.666-3.787-8.455-8.465-8.455H634.12v16.909z"/>
    <path fill="#BDCDFF" d="M645.107 137.181h-73.814a2.97 2.97 0 1 0 0 5.942h73.808a2.97 2.97 0 0 0 2.974-2.971 2.96 2.96 0 0 0-2.968-2.971z"/>
    <g fill="#FBB549" opacity=".3">
        <path d="M495.22 378.685h21.654c3.25 0 5.891 2.631 5.891 5.877 0 3.245-2.634 5.876-5.891 5.876H495.22v-11.753z" opacity=".3"/>
        <path d="M497.219 378.685H470.88c-3.25 0-5.89 2.631-5.89 5.877a5.881 5.881 0 0 0 5.89 5.876h26.339v-11.753z" opacity=".3"/>
        <path d="M496.884 390.373h-21.319a4.151 4.151 0 0 1 4.153 4.148 4.152 4.152 0 0 1-4.153 4.149h21.319v-8.297z" opacity=".3"/>
        <path d="M479.758 390.373h21.32a4.152 4.152 0 0 0-4.154 4.148 4.152 4.152 0 0 0 4.154 4.149h-21.32v-8.297zM493.294 370.46h-21.32a4.153 4.153 0 0 1 4.154 4.149 4.152 4.152 0 0 1-4.154 4.148h21.32v-8.297z" opacity=".3"/>
        <path d="M476.161 370.46h21.32a4.152 4.152 0 0 0-4.154 4.149c0 2.29 1.86 4.148 4.154 4.148h-21.32v-8.297zM484.043 398.663h21.654c3.25 0 5.89 2.631 5.89 5.877a5.887 5.887 0 0 1-5.89 5.883h-21.654v-11.76z" opacity=".3"/>
        <path d="M485.045 398.663h-21.654c-3.25 0-5.89 2.631-5.89 5.877a5.887 5.887 0 0 0 5.89 5.883h21.654v-11.76zM476.796 358.688h21.654a5.88 5.88 0 0 1 5.884 5.883 5.885 5.885 0 0 1-5.884 5.882h-21.654v-11.765z" opacity=".3"/>
        <path d="M477.792 358.688h-21.654c-3.25 0-5.89 2.63-5.89 5.883a5.886 5.886 0 0 0 5.89 5.882h21.654v-11.765z" opacity=".3"/>
        <path d="M470.153 358.819h14.886a2.07 2.07 0 0 0 0-4.136h-14.886a2.07 2.07 0 0 0-2.071 2.068 2.062 2.062 0 0 0 2.071 2.068z" opacity=".3"/>
    </g>
    <g fill="#FBB549" opacity=".3">
        <path d="M500.986 381.951h-26.751c-4.017 0-7.273-3.252-7.273-7.264 0-4.011 3.256-7.263 7.273-7.263h26.751v14.527z" opacity=".3"/>
        <path d="M498.522 381.951h32.544c4.016 0 7.272-3.252 7.272-7.264 0-4.011-3.256-7.263-7.272-7.263h-32.544v14.527z" opacity=".3"/>
        <path d="M498.935 367.515h26.339a5.126 5.126 0 0 1-5.13-5.124 5.126 5.126 0 0 1 5.13-5.123h-26.339v10.247z" opacity=".3"/>
        <path d="M520.098 367.515h-26.339c2.831 0 5.13-2.29 5.13-5.124a5.126 5.126 0 0 0-5.13-5.123h26.339v10.247zM503.371 392.12h26.338c-2.83 0-5.13-2.29-5.13-5.124a5.127 5.127 0 0 1 5.13-5.124h-26.338v10.248z" opacity=".3"/>
        <path d="M524.534 392.12h-26.339c2.83 0 5.13-2.29 5.13-5.124a5.126 5.126 0 0 0-5.13-5.124h26.339v10.248zM514.797 357.268h-26.751c-4.016 0-7.273-3.252-7.273-7.264 0-4.011 3.257-7.263 7.273-7.263h26.751v14.527z" opacity=".3"/>
        <path d="M513.566 357.268h26.751c4.016 0 7.273-3.252 7.273-7.264 0-4.011-3.257-7.263-7.273-7.263h-26.751v14.527zM523.754 406.66h-26.752c-4.016 0-7.272-3.252-7.272-7.264 0-4.011 3.256-7.263 7.272-7.263h26.752v14.527z" opacity=".3"/>
        <path d="M522.522 406.66h26.752c4.016 0 7.272-3.252 7.272-7.264 0-4.011-3.256-7.263-7.272-7.263h-26.752v14.527z" opacity=".3"/>
        <path d="M531.963 406.496h-18.384a2.56 2.56 0 1 0 0 5.118h18.384a2.56 2.56 0 1 0 0-5.118z" opacity=".3"/>
    </g>
    <g fill="#8AA4F8" opacity=".6">
        <path d="M36.664 185.89H7.836c-4.324 0-7.836-3.507-7.836-7.833 0-4.325 3.512-7.826 7.836-7.826h28.828v15.659z"/>
        <path d="M34.01 185.89h35.073c4.331 0 7.836-3.507 7.836-7.826 0-4.326-3.511-7.827-7.836-7.827H34.011v15.653z"/>
        <path d="M34.45 170.329h28.383a5.527 5.527 0 0 1-5.53-5.523 5.528 5.528 0 0 1 5.53-5.523H34.45v11.046z"/>
        <path d="M57.257 170.329H28.874a5.527 5.527 0 0 0 5.53-5.523 5.528 5.528 0 0 0-5.53-5.523h28.383v11.046zM39.233 196.838h28.383a5.528 5.528 0 0 1-5.53-5.523 5.527 5.527 0 0 1 5.53-5.523H39.233v11.046z"/>
        <path d="M62.04 196.838H33.657a5.528 5.528 0 0 0 5.53-5.523 5.527 5.527 0 0 0-5.53-5.523H62.04v11.046zM51.544 159.283H22.716c-4.331 0-7.837-3.507-7.837-7.826 0-4.326 3.512-7.827 7.836-7.827h28.829v15.653z"/>
        <path d="M50.214 159.283h28.828c4.331 0 7.836-3.507 7.836-7.826 0-4.326-3.511-7.827-7.836-7.827H50.214v15.653zM61.201 212.517H32.373c-4.33 0-7.836-3.508-7.836-7.827 0-4.325 3.512-7.826 7.836-7.826h28.828v15.653z"/>
        <path d="M59.871 212.517H88.7c4.33 0 7.836-3.508 7.836-7.827 0-4.325-3.512-7.826-7.836-7.826H59.87v15.653z"/>
        <path d="M70.046 212.34H50.227a2.757 2.757 0 0 0-2.758 2.755 2.757 2.757 0 0 0 2.758 2.755h19.819a2.757 2.757 0 0 0 2.759-2.755 2.757 2.757 0 0 0-2.759-2.755z"/>
    </g>
    <g fill="#335ECF" opacity=".06">
        <path d="M136.634 468.269H85.281a1.93 1.93 0 1 1 0-3.86h51.353v3.86z"/>
        <path d="M132.769 468.269h60.428a1.93 1.93 0 1 0 0-3.86h-60.428v3.86z"/>
        <path d="M133.411 464.428h41.257c-4.435 0-8.032-.608-8.032-1.361 0-.752 3.597-1.361 8.032-1.361h-41.257v2.722z"/>
        <path d="M166.557 464.428H125.3c4.435 0 8.032-.608 8.032-1.361 0-.752-3.597-1.361-8.032-1.361h41.257v2.722zM140.362 470.972h41.258c-4.436 0-8.033-.609-8.033-1.361 0-.753 3.597-1.361 8.033-1.361h-41.258v2.722z"/>
        <path d="M173.509 470.972h-41.258c4.436 0 8.033-.609 8.033-1.361 0-.753-3.597-1.361-8.033-1.361h41.258v2.722zM158.256 461.699h-51.354a1.93 1.93 0 1 1 0-3.86h51.354v3.86z"/>
        <path d="M156.329 461.699h51.354a1.93 1.93 0 1 0 0-3.86h-51.354v3.86zM172.29 474.846h-51.354a1.931 1.931 0 1 1 0-3.861h51.354v3.861z"/>
        <path d="M170.357 474.846h51.354a1.931 1.931 0 1 0 0-3.861h-51.354v3.861z"/>
        <path d="M185.145 474.8h-28.802c-2.215 0-4.01.308-4.01.681 0 .373 1.795.68 4.01.68h28.802c2.214 0 4.01-.307 4.01-.68 0-.373-1.796-.681-4.01-.681z"/>
    </g>
    <g fill="#335ECF" opacity=".06">
        <path d="M301.847 499.568h-51.354a1.931 1.931 0 1 1 0-3.861h51.354v3.861z"/>
        <path d="M297.988 499.568h60.428a1.931 1.931 0 1 0 0-3.861h-60.428v3.861z"/>
        <path d="M298.63 495.727h41.258c-4.436 0-8.033-.609-8.033-1.361 0-.753 3.597-1.361 8.033-1.361H298.63v2.722z"/>
        <path d="M331.776 495.727h-41.257c4.436 0 8.033-.609 8.033-1.361 0-.753-3.597-1.361-8.033-1.361h41.257v2.722zM305.582 502.271h41.257c-4.435 0-8.032-.609-8.032-1.361 0-.753 3.597-1.362 8.032-1.362h-41.257v2.723z"/>
        <path d="M338.728 502.271h-41.251c4.436 0 8.033-.609 8.033-1.361 0-.753-3.597-1.362-8.033-1.362h41.258v2.723h-.007zM323.475 492.998h-51.354a1.931 1.931 0 1 1 0-3.861h51.354v3.861z"/>
        <path d="M321.542 492.998h51.354a1.931 1.931 0 1 0 0-3.861h-51.354v3.861zM337.509 506.145h-51.354a1.93 1.93 0 1 1 0-3.861h51.354v3.861z"/>
        <path d="M335.576 506.145h51.354a1.931 1.931 0 1 0 0-3.861h-51.354v3.861z"/>
        <path d="M350.364 506.099h-28.802c-2.215 0-4.01.307-4.01.68 0 .373 1.795.681 4.01.681h28.802c2.215 0 4.01-.308 4.01-.681 0-.373-1.795-.68-4.01-.68z"/>
    </g>
    <g fill="#335ECF" opacity=".06">
        <path d="M587.524 474.905H536.17a1.931 1.931 0 1 1 0-3.861h51.354v3.861z"/>
        <path d="M583.658 474.905h60.428a1.931 1.931 0 1 0 0-3.861h-60.428v3.861z"/>
        <path d="M584.307 471.064h41.257c-4.436 0-8.033-.609-8.033-1.362 0-.752 3.597-1.361 8.033-1.361h-41.257v2.723z"/>
        <path d="M617.453 471.064h-41.258c4.436 0 8.033-.609 8.033-1.362 0-.752-3.597-1.361-8.033-1.361h41.258v2.723zM591.258 477.607h41.258c-4.436 0-8.033-.608-8.033-1.361 0-.752 3.597-1.361 8.033-1.361h-41.258v2.722z"/>
        <path d="M624.404 477.607h-41.257c4.436 0 8.033-.608 8.033-1.361 0-.752-3.597-1.361-8.033-1.361h41.257v2.722zM609.151 468.335h-51.353a1.931 1.931 0 1 1 0-3.861h51.353v3.861z"/>
        <path d="M607.219 468.335h51.353a1.931 1.931 0 1 0 0-3.861h-51.353v3.861zM623.179 481.481h-51.354a1.931 1.931 0 1 1 0-3.861h51.354v3.861z"/>
        <path d="M621.246 481.481H672.6a1.931 1.931 0 1 0 0-3.861h-51.354v3.861z"/>
        <path d="M636.04 481.435h-28.802c-2.214 0-4.009.308-4.009.681 0 .373 1.795.68 4.009.68h28.802c2.215 0 4.01-.307 4.01-.68-.006-.373-1.795-.681-4.01-.681z"/>
    </g>
    <path fill="#335ECF" d="M430.684 347.832h-70.839v77.641h70.839v-77.641z"/>
    <path fill="#002B91" d="M430.684 347.269h-70.839v29.159h70.839v-29.159z"/>
    <path fill="url(#a)" d="M590.686 366.81H200.379c-14.868 0-26.918-10.005-26.918-22.35V118.472c0-12.345 12.05-22.35 26.918-22.35h390.314c14.868 0 26.918 10.005 26.918 22.35V344.46c-.008 12.338-12.058 22.35-26.925 22.35z"/>
    <path fill="#fff" d="M596.619 117.114H194.454v228.704h402.165V117.114z"/>
    <path fill="url(#b)" d="M514.86 435.311H275.108l1.769-2.262c6.71-8.565 25.007-14.311 45.557-14.311H467.52c20.557 0 38.847 5.746 45.558 14.311l1.782 2.262z"/>
    <path fill="#8AA4F8" d="M331.036 263.666l-79.003-.268-4.58-109.654 85.706 5.235-2.123 104.687z"/>
    <path fill="#F6A9A9" d="M196.388 320.139c.262-6.014-.636-24.265-1.304-26.882l-3.427.203c-.268.975-2.463 14.533-3.302 19.755l-15.79-13.598c-1.507.733-2.083 2.709-1.278 4.411 1.455 3.069 7.902 19.579 7.902 19.579 4.219 6.295 10.568 6.89 12.318 6.916 1.14.02 2.227.046 2.876-.896 2.09-3.063 2.005-9.488 2.005-9.488z"/>
    <path fill="#005679" d="M172.552 298.649s8.911 6.4 15.541 14.357c0 0-1.055 12.525-4.01 18.159 0 0-8.576-7.31-11.289-14.357-3.007-7.84-1.225-14.665-.242-18.159z"/>
    <path fill="#F6A9A9" d="M190.098 288.342l-.917-1.308c-.197-.255-.721-.759-1.166-.563-.099.039-.19.092-.282.131.183.484 1.107 2.205 1.402 2.833.301.655 2.588 3.01 2.588 3.01l-.17 2.251 3.583-.359-.176-1.879.845-2.192-.138-4.463-.341-.412a.655.655 0 0 0-.34-.216l-.4-.111-.583-.72a.585.585 0 0 0-.498-.216l-.577.066a.545.545 0 0 1-.36-.092l-.459-.307c-.072-.027-.15-.04-.222-.027-.4.085-.826.458-.826.458l-.891-3.841a2.451 2.451 0 0 0-.301-.713l-.177-.281a.377.377 0 0 0-.675.072 2.964 2.964 0 0 0-.144 1.433l.642 4.207c-.007.013-.039 1.44.583 3.239z"/>
    <path fill="#00414F" d="M170.816 450.189l-.302 10.071s2.778 1.956 5.451.425l-.452-9.063s-4.835-1.649-4.697-1.433z"/>
    <path fill="#1D1E50" d="M175.101 455.679s-.433 2.735 1.087 3.423c1.514.687 2.936.222 5.176-.511 2.896-.942 8.223 2.375 2.359 3.069-.865.105-5.687.563-8.236-.864-1.245-.693-1.461-2.846-1.245-3.501l.859-1.616z"/>
    <path fill="#00414F" d="M182.419 397.459c0-.032 1.265-31.822-3.813-50.583-.858-2.905-10.254-1.642-10.254-1.642-9.703.818-12.802 5.222-8.504 25.174 1.081 5.012 4.239 26.875 5.097 32.411.341 11.707.878 37.286 2.234 47.167.249 1.8 1.75 3.18 3.584 3.305.885.059 1.671.124 2.366.144a3.166 3.166 0 0 0 3.23-2.637c1.762-10.346 6.729-42.757 6.06-53.339zM145.571 450.34l-.295 10.07s2.785 1.957 5.452.426l-.459-9.063s-4.835-1.649-4.698-1.433z"/>
    <path fill="#1D1E50" d="M149.856 455.83s-.426 2.735 1.088 3.422c1.52.687 2.935.216 5.176-.51 2.896-.943 8.223 2.375 2.365 3.069-.865.104-5.687.569-8.236-.858-1.244-.693-1.461-2.84-1.244-3.5l.851-1.623z"/>
    <path fill="#006A80" d="M169.348 348.211c-1.146-8.121-10.195-9.436-17.022-9.187l-1.939.072c-5.353.569-10.241 14.069-9.5 24.545.478 6.74 1.218 30.311 3.308 40.559-2.843 22.798-1.559 38.097-.825 46.238a3.3 3.3 0 0 0 2.555 2.912c2.365.543 5.838 1.178 7.037.576 2.463-7.133 5.182-22.576 6.689-35.337a.462.462 0 0 0 .013-.098l.741-5.942c.301-2.388.242-4.665-.098-6.635 2.568-7.394 1.677-18.146 3.105-25.494 1.291-6.623 7.26-22.858 5.936-32.209z"/>
    <path fill="#00ADCB" d="M181.515 353.793c-.046-4.908-.066-14.324-.131-19.86-.138-10.333-1.461-22.668-5.242-29.925-1.841-3.527-4.566-6.884-5.523-7.617-1.153-.883-10.064-1.845-10.267-1.911-9.67 2.409-17.192 10.876-18.476 19.998-1.605 11.406-.943 25.632-.943 25.632s-2.7 14.102-1.075 15.43c4.436 3.619 41.69 1.813 41.657-1.747z"/>
    <path fill="#331C51" d="M171.065 284.011s1.972-.622.812-5.517c-.288-1.217-4.861-2.349-4.861-2.349l4.049 7.866z"/>
    <path fill="#F6A9A9" d="M159.579 282.748s.446 9.894.531 12.367a.69.69 0 0 0 .406.615c.721.341 2.365.995 4.396 1.047 1.088.027 2.405.085 3.827-.948a.475.475 0 0 0 .131-.603c-1.992-4.037-1.409-9.03-1.409-9.03l-7.915-3.304"/>
    <path fill="#CC7F7F" d="M168.85 295.187c-1.422-3.913-1.435-7.211-1.435-7.211s-6.964-1.014-6.918-.851c.157 3.056 1.906 6.06 8.353 8.062z"/>
    <path fill="#F6A9A9" d="M171.327 279.122c1.192 9.678-1.481 13.212-3.8 13.441-6.31.615-8.918-3.979-9.599-8.153-.688-4.175 2.568-8.514 5.687-9.024 3.119-.511 7.194-.458 7.712 3.736z"/>
    <path fill="#23233B" d="M168.942 273.599c-.852-.464-1.677-.831-4.082-1.014-3.728-.288-3.833 1.832-6.119 2.31-1.553.327-1.494 1.597-3.172 3.717-1.081 1.368.492 2.683-.36 4.018-.989 1.557 2.018 2.284 1.933 3.448-.216 2.788 2.09 4.103 2.745 5.235.197.334.478-1.073.577-1.446.432-1.682-.485-3.429-.465-3.501-.741-.196-2.464-1.027-1.593-3.756.944-2.931 2.464.596 2.464.596s.59-1.388.445-2.356c-.294-1.963 6.736-3.828 7.653-3.521 1.514.511 1.979 1.617 2.909 2.408.492.426.413-4.312-2.935-6.138z"/>
    <path fill="#005679" d="M159.153 292.864a.58.58 0 0 1 .8-.419c1.297.537 4.724 1.695 8.524.694.675-.268.871.334.943.805.066.471.406 2.081.406 2.081s-.871 1.276-3.426 1.479c-2.555.202-6.919-1.479-7.253-1.813-.249-.249-.177-1.885.006-2.827z"/>
    <path fill="#F6A9A9" d="M112.858 344.377c-.145.065-.669.53.15 1.452.813.929 1.075 1.021 1.075 1.021s-2.405.438-3.067.589c-.661.15-2.24.667-2.568.831-.327.164-.97.471-.891.857.059.269.446.334.74.341-.347.078-.635.15-.753.209-.328.164-.754.406-.668.785.085.386.675.517.891.498.216.019.576-.007 1.015-.059-.039.013-.072.026-.098.032-.262.118-.76.314-.708.622.053.308.78.373.95.366.145.007.511.007 1.009-.013-.229.092-.498.229-.478.445.033.269.642.36.793.367.321.032 2.038.131 3.466-.177.006 0 .013.007.02.007.314.013.655-.059 1.592-.282.937-.216 1.834-.693 2.208-.955.38-.262 1.002-.916 1.002-.916l.577-.138-.538-3.422-.779.105s-.452-.478-.787-.622a11.992 11.992 0 0 0-1.677-.523c-.432-.086-.95-.269-1.33-.688-.367-.412-1.002-.798-1.146-.732z"/>
    <path fill="#F6A9A9" d="M118.492 350.174c-.557-1.551-.989-2.748-.15-3.219 2.968-1.675 6.309-4.025 14.066-10.765 1.199-.327 3.054-12.223 5.55-14.062.721-.53 6.303-4.011 9.677-.713 1.828 1.786-2.26 13.578-2.372 13.912-1.749 5.235-5.405 7.551-9.946 9.796-.013 0-16.556 5.797-16.825 5.051z"/>
    <path fill="#005679" d="M147.203 330.903c1.048-2.644 4.049-14.913 6.591-19.114 3.033-5.013 4.678-11.321-.577-12.047-3.892-.537-8.753 4.691-10.109 6.452-2.909 3.789-10.018 18.263-10.693 24.166 3.826 1.603 10.09 1.616 14.788.543z"/>
    <path fill="#F48254" d="M129.486 433.313l-26.948 4.907 3.669 20.096c.95 5.216 6.002 8.704 11.224 7.755l7.967-1.453c5.222-.949 8.714-5.994 7.764-11.209l-3.676-20.096z"/>
    <path fill="#005679" d="M83.636 282.322l27.898 154.407-8.983 1.636-27.898-154.407 8.983-1.636z"/>
    <path fill="#013E51" d="M92.619 280.693l27.898 154.4-8.983 1.636-27.898-154.407 8.983-1.629z"/>
    <path fill="#005679" d="M101.601 279.057l27.898 154.406-8.982 1.63-27.898-154.4 8.982-1.636z"/>
    <path fill="#E6E6E3" d="M129.195 431.166l-27.13 4.939.665 3.644 27.13-4.939-.665-3.644zM101.562 279.095l-17.559-18.303-9.395 23.211s15.587 5.542 26.954-4.908z"/>
    <path fill="#23233B" d="M88.616 265.577l-4.613-4.803-2.463 6.092s4.088 1.459 7.076-1.289zM301.015 33.934s-4.291-1.347-2.817-4.652c.124-1.224-2.942-2.448-2.451-7.1.492-4.653 5.517-5.628 6.742-6.976 1.226-1.348 2.693-4.77 2.818-7.224.124-2.447 1.592-6.734 5.634-7.709 4.043-.981 7.109.877 8.826 2.448 3.066 2.814 2.693 7.833 6.86 9.914 3.466 1.734 6.984 1.956 9.31 4.286 2.326 2.323 2.083 5.143 1.716 7.218 0 0 1.842-1.348 4.777 2.08 2.942 3.43 3.8 6.976 1.592 11.38-2.208 4.404-5.884 6.485-9.559 5.386 0 0-10.785 7.224-18.627-2.448-8.819 2.454-16.17 1.846-14.821-6.602z"/>
    <path fill="#F6A9A9" d="M324.668 94.425l.497-4.548 8.937 1.047c1.396.124 1.645.216 3.434.17l3.754.236s-1.121.726-.334 2.153c.878 1.59-4.174 1.387-4.547 1.335l-11.741-.393zM285.336 63.25l14.022 9.096 31.377-.288 10.987-6.21-4.193-6.21-8.675 6.786-27.76.87-10.844-8.375-4.914 4.331z"/>
    <path fill="url(#c)" d="M313.097 25.369c-2.686-.118-5.097.412-7.253 1.086-1.402.432-2.824 1.001-3.735 1.23-2.312.576-19.216 25.508-20.939 28.112-3.185 4.817-.577 7.702-.577 7.702l8.485 5.582 2.987-10.012-1.664-1.158 8.891-12.61-1.042 7.898-1.343 20.024 35.426-.288-1.598-20.796-.688-7.126 6.65 13.094-.865 1.25 4.167 9.822s7.227-7.361 8.387-8.088c1.159-.726 2.286-4.672.55-6.544-1.736-1.878-15.712-21.77-19.617-25.383-1.074-.994-5.497-2.526-7.521-3.717-4.462-2.637-8.701-.078-8.701-.078z"/>
    <path fill="#F6A9A9" d="M305.818 26.448s4.154 4.306 8.792 4.116c4.646-.19 7.646-2.696 9.049-4.2l-5.963-3.129a1.351 1.351 0 0 1-.72-1.243l.118-2.945-5.176.557s-.014 2.041-.164 3.082c-.144 1.04-5.936 3.762-5.936 3.762z"/>
    <path fill="#CC7F7F" d="M312.9 24.884c.747 1.034 2.359.733 3.185.118.661-.49.897-2.931.904-3.017l.118-2.944-5.176.556s-.007 1.165-.079 2.18c.184 1.373.419 2.237 1.048 3.107z"/>
    <path fill="#E6E6E3" d="M333.912 55.882h-39.036v27.15h39.036v-27.15z"/>
    <path fill="#0488B2" d="M330.879 96.107c-9.474-.51-29.752-2.945-45.379-7.578-.039-.013-23.167-3.075-20.815-14.86l.354-1.538c2.922-8.776 24.589-1.748 24.628-1.735 15.764 4.437 33.847 12.898 42.293 17.564.006 0 .884 6.223-1.081 8.147z"/>
    <path fill="#00414F" d="M336.114 91.114s3.728-.072 3.8 1.714c.072 1.8-3.505 2.01-3.505 2.01l8.497 1.563s3.801.223 5.818-1.564c2.012-1.786.001-4.018-1.264-4.541-1.265-.524-2.162-1.12-4.324-.746-2.162.373-9.022 1.564-9.022 1.564z"/>
    <path fill="#F6A9A9" d="M304.462 94.3l-.498-4.547-8.937 1.047c-1.396.124-1.645.216-3.433.17l-3.755.236s1.121.726.334 2.152c-.877 1.59 4.174 1.388 4.548 1.335l11.741-.392z"/>
    <path fill="#00414F" d="M293.015 90.99s-3.728-.073-3.8 1.714c-.072 1.8 3.505 2.009 3.505 2.009l-8.497 1.564s-3.8.222-5.818-1.564c-2.012-1.787 0-4.018 1.264-4.542 1.265-.523 2.162-1.119 4.324-.746s9.022 1.564 9.022 1.564z"/>
    <path fill="#00B2CF" d="M295.584 97.363c9.474-.51 29.752-2.945 45.378-7.578.039-.013 23.168-3.075 20.816-14.86l-.354-1.538c-2.922-8.775-24.59-1.747-24.629-1.734-15.764 4.436-33.847 12.897-42.292 17.563 0 0-.885 6.217 1.081 8.147z"/>
    <path fill="#F6A9A9" d="M307.96 10.56s.243 6.976 1.841 8.815c1.592 1.839 2.693 2.69 5.026 2.572 2.326-.125 5.267-3.547 5.516-7.591.243-4.038.013-4.149.013-4.149s-7.737-.308-8.963-3.612c-.013 0-.373 3.108-3.433 3.965z"/>
    <path fill="#335ECF" d="M305.025 249.374l84.14 4.483 6.434-112.343-97.336-5.962 6.762 113.822z"/>
    <path fill="url(#d)" d="M525.379 271.885l-133.469 4.98-7.771-188.552 149.01-1.865-7.77 185.437z"/>
    <path fill="#002B91" d="M466.523 268.476l-107.635.648-6.644-154.139h117.601l-3.322 153.491z"/>
    <path fill="#00414F" d="M285.461 477.103l-3.446 7.454s1.133 3.174 4.18 3.455l2.922-7.44s-3.643-3.724-3.656-3.469z"/>
    <path fill="#00414F" d="M287.964 483.183s-1.527 2.447-.97 3.998c.557 1.551 1.874 2.238 3.938 3.324 2.673 1.407 3.99 7.48-.551 3.795-.674-.543-4.33-3.644-5.077-6.445-.367-1.361 1.015-3.004 1.631-3.305l1.029-1.367z"/>
    <path fill="#23233B" d="M322.237 320.937s-.02.883.275 2.637c.301 1.813.111 2.029-1.396 1.571-1.991-.603-3.662-1.499-4.756-3.043-1.094-1.545-1.193-3.168-.275-3.586 0 0-4.842-3.92-3.84-6.289 1.081-2.558 3.676-1.61 3.676-1.61s-1.619-3.304.779-4.659c2.392-1.354 3.407.956 4.731.55 1.323-.406.865-1.682 2.09-1.957 1.219-.275 1.854 2.107 2.948 1.034 2.903-2.846 7.928-2.382 6.939 1.846-.675 2.879-1.809 4.672-5.969 3.834-2.791-.563-3.525.569-3.617 2.65-.091 2.081-.871 2.801-.871 2.801s-1.88-1.191-2.267 1.113a2.775 2.775 0 0 0 1.553 3.108z"/>
    <path fill="#EE3F3A" d="M332.851 327.86s5.569 5.019 8.583 12.649c1.264 3.2 2.667 10.647 3.197 16.144.439 4.508 4.18 14.782 6.1 19.003 1.926 4.22 3.767 10.012 3.826 14.069.059 4.057-20.861.196-20.861.196s-10.136-.438-11.269-4.365c-1.14-3.926 4.082-59.77 4.082-59.77s4.095.268 6.342 2.074z"/>
    <path fill="#00414F" d="M338.079 484.851l.983 8.154s2.634 2.107 5.373.752l-1.422-7.865c0-.007-5.058-1.263-4.934-1.041z"/>
    <path fill="#00414F" d="M343.4 488.719s-.014 2.885 1.277 3.913c1.291 1.027 2.772.922 5.097.765 3.014-.203 7.326 4.28 1.527 3.521-.858-.111-5.602-.831-7.712-2.827-1.028-.969-.714-3.089-.347-3.665l.158-1.707z"/>
    <path fill="#0488B2" d="M289.766 484.603c5.7-4.653 27.95-32.497 27.95-32.497 4.246-5.267 4.534-9.527 1.933-11.615l-.872-.7c-2.601-2.094-10.41-2.218-10.43-2.192-15.22 18.676-21.91 32.876-25.389 39.884-.38.759-.34 1.662.118 2.382 1.134 1.799 3.591 4.954 6.69 4.738z"/>
    <path fill="#005679" d="M345.581 395.843c-2.129-8.31-3.289-14.933-7.934-18.551l-25.729 3.939c-2.477 10.62 7.541 19.121 14.702 38.065 1.232 3.259 4.547 16.719 6.388 24.159 1.795 7.264 8.177 9.384 11.224 8.213 5.031-1.931 5.221-7.362 5.32-8.409 1.061-10.823-2.11-40.165-3.971-47.416z"/>
    <path fill="#005679" d="M344.461 487.796c4.665-10.424 5.91-41.298 5.038-47.246 0 0-16.471-1.093-16.471-1.067-.033 10.202 1.526 36.888 3.204 45.689a2.647 2.647 0 0 0 1.906 2.068c1.94.536 5.137 1.243 6.323.556z"/>
    <path fill="#0488B2" d="M327.583 382.572c-1.657-8.461-30.768-17.02-26.037 18.938 1.088 8.258 5.307 39.367 8.884 44.936 1.416 2.205 8.026 4.725 8.623 3.867.53-.772 1.723-2.218 2.732-4.541 3.164-7.257 2.568-19.88 3.82-28.217 1.035-6.923 3.891-25.252 1.978-34.983z"/>
    <path fill="#EE3F3A" d="M318.64 335.981c3.905 3.749 4.914 8.86 1.946 11.844l-.996 1.001c-2.968 2.984-8.537 2.369-12.436-1.38l-3.367-3.24c-.02-.019-.033-.039-.053-.052-8.976-8.454-17.48-22.196-18.345-25.121-.472-1.597 1.9-4.496 3.531-4.071 2.988.779 18.634 13.062 26.313 14.076.019.02 3.407 6.943 3.407 6.943zM327.701 332.729s10.038 14.913 12.796 11.235l7.083-10.391a.405.405 0 0 1 .039-.053c6.381-8.291 10.666-22.458 10.778-25.173.059-1.479-6.808-4.129-9.612.327-2.431 4.214-16.917 19.69-21.084 24.055z"/>
    <path fill="#C080B1" d="M325.054 331.557c-1.474-.275-2.883-1.112-4.167-2.251l.092 1.329 2.915 5.621 2.549-4.601a6.266 6.266 0 0 1-1.389-.098z"/>
    <path fill="#EE3F3A" d="M346.44 279.678l-1.488.491c-1.526.504-2.326 2.212-1.815 3.828 6.153 19.553 5.661 26.359 5.661 26.359 1.651 12.891 11.656 1.76 9.265-4.771 0 0-6.637-21.509-8.144-24.415-.675-1.308-2.149-1.93-3.479-1.492zM307.993 288.722l2.437 2.114c.832.719.904 1.976.171 2.787-1.9 2.094-4.986 5.693-7.725 9.678-2.116 3.083-7.653 11.138-11.145 22.792l-5.949-6.504a2.998 2.998 0 0 1-.747-2.618c1.003-5.058 3.623-11.562 7.659-15.829l2.962-3.134a.998.998 0 0 1 .046-.046c3.629-3.9 7.56-7.506 9.9-9.312a1.897 1.897 0 0 1 2.391.072z"/>
    <path fill="#E6E6E3" d="M326.954 326.918c1.324.006 6.578 4.319 9.376 12.839 2.405 7.309 4.075 26.456 4.573 39.779.131 3.534-8.013 3.723-17.14 3.684-8.569-.039-21.739-.419-21.87-3.612-.268-6.504 5.858-32.032 6.86-37.496 6.126-13.303 11.433-14.455 11.997-14.671l6.204-.523z"/>
    <path fill="#EE3F3A" d="M322.08 326.787l.622-1.263s-3.02-.53-7.351 1.662c-2.916 1.479-6.054 2.598-6.814 2.866-2.3.19-4.731.524-5.641 1.237-4.554 5.078 1.028 14.488 1.028 20.718 0 6.236-.268 6-4.016 12.007-8.563 14.547-13.654 27.707-10.974 29.781 2.679 2.081 8.831 1.734 15.39 1.616 6.558-.118 4.554-2.768 4.554-4.502s-.99-4.993-.4-10.738c.282-2.762 2.365-7.558 4.947-11.543 4.127-6.387 5.778-10.771 6.525-13.304 2.221-7.538-1.33-18.093-1.33-18.093-.779-2.055-.937-3.481-.15-6.786.117-.497.321-.975.615-1.394.8-1.152 1.789-2.022 2.995-2.264z"/>
    <path fill="#F6A9A9" d="M329.103 328.887s-4.815 3.148-8.439-.955l.983-3.331.072-3.35 8.557 2.761s-1.468 1.25-1.173 4.875z"/>
    <path fill="#CC7F7F" d="M324.353 325.033c.649 1.106 1.514 3.102 2.758 3.619.629.262 1.304.327 1.946.039.367-2.493 1.219-4.672 1.219-4.672l-7.639-2.683c.373 1.309 1.022 2.513 1.716 3.697z"/>
    <path fill="#F6A9A9" d="M332.13 312.155c2.7 8.847-.426 13.009-1.854 13.382-3.007.779-8.517-2.716-9.861-6.498-1.343-3.782.105-7.741 3.231-8.847 3.118-1.106 7.311-1.872 8.484 1.963z"/>
    <path fill="#23233B" d="M321.719 321.257s-1.081-1.74-1.002-2.571c.078-.831.314-3.148 1.127-1.394 0 0 .118 1.394.262 1.577.144.19 1.133-.419.734-2.251-.393-1.832-1.363-3.436-.793-4.162.786.17 2.188.995 3.859-1.001 1.965.628 3.951-1.191 3.951-1.191s1.31 1.348 3.053.523c1.579-.746.996-2.473.432-3.252-.57-.779-5.438-2.565-7.207.157 0 0-3.151-1.59-5.189.622-2.038 2.212-3.014 4.738-3.387 6.295-.374 1.564.53 5.876 1.389 6.76.858.89 2.771-.112 2.771-.112z"/>
    <path fill="#F6A9A9" d="M311.787 290.364s-2.051 1.924-2.431 2.003c-.125.026-.95.549-2.11-.805-.432-.51-.76-1.198-.511-1.793.151-.36 1.265-1.126 1.946-1.721-.177-.412-.19-.654-.131-.955.177-.858.373-1.335 1.16-2.284.779-.949 1.729-2.323 2.863-2.794 1.133-.472 1.258.261 1.258.261s.36-.333.858-.137c.498.19.649.694.649.694s.602-.177 1.002.013c.406.183.577.719.577.719s.596-.458 1.081-.065c.485.399.052 1.603-.144 1.911-.197.314-.577.896-.577.896s1.265.197 1.094.661c-.085.242-1.304 1.021-1.795 2.022-.57 1.158-1.952 1.44-2.424 1.479-1.081.111-2.365-.105-2.365-.105zM343.196 279.685s1.042 2.618 1.35 2.847c.105.078.623.903 2.247.17.61-.275 1.199-.759 1.226-1.407.013-.393-.669-1.551-1.029-2.389.334-.294.452-.51.524-.811.203-.851.229-1.368-.079-2.559-.307-1.191-.583-2.84-1.408-3.743-.826-.903-1.252-.301-1.252-.301s-.183-.451-.714-.491c-.53-.039-.884.354-.884.354s-.472-.412-.917-.419c-.446-.007-.833.406-.833.406s-.34-.668-.95-.517c-.609.15-.727 1.426-.681 1.793.046.366.138 1.06.138 1.06s-1.232-.36-1.278.137c-.026.255.747 1.473.767 2.592.019 1.289 1.159 2.133 1.565 2.368.95.563 2.208.91 2.208.91z"/>
    <path fill="#002B91" d="M221.292 20.749l45.155 7.519-34.05-9.2-11.105 1.681z"/>
    <path fill="#8AA4F8" d="M230.622.627s28.271 22.713 35.825 27.647c0 0-30.564 3.704-39.704 6.426l5.661-15.626.655-5.02L230.622.628z"/>
    <path fill="#335ECF" d="M221.292 20.749l11.105-1.682 34.05 9.2-33.395-14.219-11.76 6.7z"/>
    <path fill="#FE5F88" d="M211.287 21.573l-.144.818a51.954 51.954 0 0 0-3.682-.517l.085-.83c1.258.13 2.516.307 3.741.53zM200.037 20.775l.026.831a65.671 65.671 0 0 0-7.384.635l-.117-.825a68.743 68.743 0 0 1 7.475-.641zm-14.84 2.074l.197.812a83.315 83.315 0 0 0-7.122 2.087l-.269-.785a85.06 85.06 0 0 1 7.194-2.114zm-14.185 4.817l.334.765a98.403 98.403 0 0 0-6.702 3.22l-.387-.74a94.008 94.008 0 0 1 6.755-3.245zm-13.241 6.988l.445.707a91.904 91.904 0 0 0-6.119 4.208l-.498-.668c.288-.216.577-.425.865-.641a89.52 89.52 0 0 1 5.307-3.606zm6.414 9.836c2.3.981 4.442 2.257 6.369 3.795l-.518.654a26.682 26.682 0 0 0-6.178-3.677l-.125-.053.321-.765.131.046zm-7.397-2.088l-.124.825a34.649 34.649 0 0 0-7.352-.308l-.052-.831a35.001 35.001 0 0 1 7.528.314zm18.889 11.425a31.465 31.465 0 0 1 3.447 6.708l-.78.288c-.878-2.356-2.005-4.555-3.355-6.524l.688-.471zm-29.804-10.07l.583.595c-1.894 1.852-3.447 3.69-4.744 5.628l-.694-.465c1.33-1.983 2.915-3.867 4.855-5.758zm-4.049-.471l.209.804a40.277 40.277 0 0 0-6.938 2.507l-.354-.753a41.385 41.385 0 0 1 7.083-2.559zm39.108 24.565c.328 2.61.301 5.15-.072 7.545l-.826-.125c.361-2.316.38-4.777.066-7.316l.832-.104zm-52.677-18.192l.491.674a44.486 44.486 0 0 0-5.589 4.823l-.596-.582a45.6 45.6 0 0 1 5.694-4.915zm10.312 6.897c-.655 2.284-.937 4.718-.851 7.238l-.833.032c-.091-2.604.204-5.13.878-7.499l.806.23zm39.128 25.58l.721.419a17.624 17.624 0 0 1-2.621 3.48 18.328 18.328 0 0 1-2.476 2.128l-.485-.681a17.14 17.14 0 0 0 2.365-2.029c.95-.988 1.789-2.1 2.496-3.317zm-59.969-21.81l.675.484a55.673 55.673 0 0 0-3.912 6.275l-.734-.392a56.736 56.736 0 0 1 3.971-6.368zm21.228 10.685a31.099 31.099 0 0 0 2.968 6.714l-.721.426a32.123 32.123 0 0 1-3.053-6.891l.806-.249zm27.256 19.422l.19.812c-2.503.575-5.124.647-7.574.21l.144-.819c2.339.412 4.842.34 7.24-.203zm-19.826-6.877c1.769 1.806 3.708 3.324 5.772 4.508l-.419.72c-2.13-1.224-4.135-2.787-5.95-4.646l.597-.582zm-34.994-9.75a66.34 66.34 0 0 0-2.319 7.034l-.806-.216a67.972 67.972 0 0 1 2.352-7.12l.773.302zm-3.885 14.272a69.708 69.708 0 0 0-.498 3.638 90.554 90.554 0 0 0-.334 3.73l-.832-.053c.085-1.243.196-2.506.334-3.762.137-1.217.301-2.454.504-3.678l.826.124zm-1.016 14.782c.039 2.46.19 4.953.433 7.401l-.833.085a91.867 91.867 0 0 1-.438-7.473l.838-.013zm1.468 14.749a90.193 90.193 0 0 0 1.638 7.238l-.806.216a91.811 91.811 0 0 1-1.651-7.303l.819-.151zm3.859 14.312a89.592 89.592 0 0 0 2.791 6.871l-.76.346a88.333 88.333 0 0 1-2.817-6.936l.786-.281zM118.007 145.486a90.409 90.409 0 0 0 1.9 3.213l-.707.438a84.207 84.207 0 0 1-1.92-3.246l.727-.405z"/>
    <path fill="#D5DFFF" d="M274.605 186.031l4.245 55.655c.066.877.813 1.538 1.664 1.479l43.892-3.279a1.543 1.543 0 0 0 1.428-1.76l-5.641-43.464-17.684-13.297-26.581 3.102c-.786.092-1.382.792-1.323 1.564z"/>
    <path fill="#ABBEFC" d="M320.212 194.682l-17.362-13.356 1.579 13.5a1.873 1.873 0 0 0 2.083 1.642l13.7-1.786z"/>
    <path fill="url(#e)" d="M314.8 72.366c-1.834.079-3.374-1.191-3.452-2.84-.073-1.649 1.356-3.05 3.19-3.128 1.835-.078 3.375 1.191 3.453 2.84.079 1.65-1.356 3.043-3.191 3.128z"/>
    <path fill="#C1D9E5" d="M477.301 176.921l6.67-38.123 19.76 21.502c3.001 3.266 1.409 8.834-2.693 9.98l-23.737 6.641zM536.517 194.413l17.605-37.724-31.548 8.723c-4.527 1.249-6.394 6.805-3.518 9.946l17.461 19.055z"/>
    <path fill="#A7C4E4" d="M536.517 194.414l-59.216-17.498 28.75-10.431c3.983-1.446 8.314-.255 10.882 3.01l19.584 24.919z"/>
    <path fill="#FE5F88" d="M554.135 156.663l-70.158-17.898 20.973 31.574c2.398 3.612 6.558 4.797 10.693 3.004l38.492-16.68z"/>
    <path fill="#fff" d="M238.975 256.52l53.437-23.413 7.45 31.325-45.732 19.572-15.155-27.484z"/>
    <path fill="#C1D9E5" d="M253.894 284.383l-14.906-27.496 23.312 3.73c3.538.569 5.327 4.888 3.302 7.669l-11.708 16.097zM300.19 265.819l-7.778-32.712-15.613 21.319c-2.241 3.056-.635 7.512 2.765 8.062l20.626 3.331z"/>
    <path fill="#A7C4E4" d="M300.19 265.819l-46.296 18.558 12.979-21.006c1.795-2.905 5.137-4.325 8.406-3.54l24.911 5.988z"/>
    <path fill="url(#f)" d="M239.015 257.044l53.431-23.78-29.13-9.502c-3.335-1.086-6.565.249-8.282 3.449l-16.019 29.833z"/>
    <path fill="#F9F8FD" d="M461.209 263.169l-107.634.641-6.644-154.138h117.6l-3.322 153.497z"/>
    <path fill="#005679" d="M475.487 122.929c14.006-13.988 14.006-36.668 0-50.657-14.006-13.989-36.715-13.989-50.721 0-14.006 13.989-14.006 36.669 0 50.657 14.006 13.989 36.715 13.989 50.721 0z" opacity=".5"/>
    <path fill="#002B91" d="M446.055 126.018c19.189 0 34.744-15.536 34.744-34.701 0-19.166-15.555-34.702-34.744-34.702S411.31 72.151 411.31 91.317c0 19.165 15.556 34.701 34.745 34.701z"/>
    <path fill="#fff" d="M446.055 56.615c19.19 0 34.745 15.535 34.745 34.702 0 19.166-15.555 34.701-34.745 34.701-19.191 0-34.745-15.535-34.745-34.701-.007-19.167 15.554-34.702 34.745-34.702zm0-2.166c-20.357 0-36.914 16.536-36.914 36.868 0 20.331 16.557 36.867 36.914 36.867 20.357 0 36.913-16.536 36.913-36.867-.006-20.325-16.563-36.868-36.913-36.868z"/>
    <path fill="#335ECF" d="M470.425 96.97c3.122-13.433-5.251-26.851-18.701-29.97-13.451-3.118-26.886 5.245-30.008 18.679-3.122 13.434 5.251 26.852 18.702 29.97 13.45 3.118 26.885-5.244 30.007-18.678z"/>
    <path fill="#E6E6E3" d="M464.186 94.763c1.896-9.996-4.68-19.634-14.688-21.527-10.008-1.893-19.658 4.675-21.553 14.67-1.896 9.996 4.68 19.633 14.688 21.527 10.008 1.893 19.658-4.675 21.553-14.67z"/>
    <path fill="#FE5F88" d="M457.345 93.454c1.184-6.239-2.92-12.255-9.166-13.437-6.247-1.183-12.27 2.916-13.454 9.155-1.184 6.239 2.92 12.255 9.167 13.437 6.246 1.182 12.27-2.917 13.453-9.155zM474.477 63.23l-1.553-8.028 11.381-11.373 1.553 8.035-11.381 11.367zM474.687 63.44l8.039 1.551 11.387-11.366-8.046-1.551-11.38 11.366z"/>
    <path fill="#231F20" d="M486.684 51.862l-.617-.616-40.315 40.265.616.616 40.316-40.265z"/>
    <path fill="#002B91" d="M561.912 368.104l-.131.052-9.965 4.208-31.561-74.566 10.097-4.266 31.56 74.572z"/>
    <path fill="#8AA4F8" d="M530.352 293.532l-10.097 4.266-5.117-18.735 5.327-2.251 9.887 16.72z"/>
    <path fill="#E6E6E3" d="M531.119 295.386l-10.096 4.262.518 1.223 10.096-4.262-.518-1.223z"/>
    <path fill="#EE3F3A" d="M515.138 279.063l1.009 3.783c.871 0 2.26-.386 3.407-.871.891-.379 2.162-1.034 2.909-1.825l-1.992-3.338-5.333 2.251z"/>
    <path fill="url(#g)" d="M518.46 278.468c-17.487 7.381-37.719-.818-45.11-18.283-7.391-17.466.819-37.673 18.306-45.054 17.487-7.381 37.719.818 45.11 18.283 7.39 17.465-.819 37.673-18.306 45.054zm-24.766-58.527c-14.827 6.262-21.792 23.4-15.528 38.215 6.27 14.809 23.429 21.765 38.263 15.509 14.827-6.263 21.791-23.401 15.528-38.216-6.27-14.815-23.436-21.771-38.263-15.508z"/>
    <path fill="#002B91" d="M517.091 275.235c-15.699 6.629-33.867-.739-40.504-16.418-6.637-15.679.74-33.825 16.438-40.454 15.699-6.628 33.867.74 40.504 16.419 6.637 15.679-.734 33.824-16.438 40.453zm-23.05-54.463c-14.368 6.066-21.123 22.68-15.043 37.031 6.073 14.35 22.709 21.097 37.077 15.031 14.368-6.066 21.123-22.681 15.05-37.031-6.074-14.357-22.709-21.097-37.084-15.031z"/>
    <path fill="#005679" d="M561.801 367.934s-.695 2.199-4.161 3.632c-3.597 1.492-5.942.628-5.942.628l10.103-4.26z"/>
    <path fill="#F7F6F4" d="M505.042 275.242c15.657 0 28.35-12.677 28.35-28.315 0-15.638-12.693-28.315-28.35-28.315-15.658 0-28.351 12.677-28.351 28.315 0 15.638 12.693 28.315 28.351 28.315z"/>
    <path fill="#F6A9A9" d="M549.529 363.072l2.988-.209.013-.027-2.634.131a1.664 1.664 0 0 1-.511-.059l-.21-.058a.25.25 0 0 1-.078-.445c.262-.19.57-.314.897-.354l2.818-.36s.91-.281 2.175-.216l-1.009-.346c-.203-.079-.616-.321-.577-.648.007-.072.02-.138.033-.203.347.026 1.618.307 2.077.379.472.072 2.594 1.617 2.594 1.617l1.448-.419.328 2.186-1.363.196-1.245.543-2.863.648h-.006l-2.385.275a2.836 2.836 0 0 1-.57-.02l-.249-.033c-.243-.032-.406-.229-.289-.327.19-.157.459-.262.78-.314l1.048-.157-2.332.006c-.197 0-.413-.026-.629-.065l-.275-.059c-.262-.052-.446-.275-.308-.366.216-.144.518-.236.878-.256l1.913-.104-2.103.019c-.243 0-.492-.026-.754-.085l-.327-.072c-.315-.065-.518-.346-.347-.464.275-.19.642-.301 1.074-.334zM608.463 301.423c-2.365-1.23-5.988 1.034-8.091 5.059a13.811 13.811 0 0 0-.898 2.139c-.426.406-1.546 1.44-2.175 1.708-.786.334-.452.629.806 1.244.17.085.327.157.472.222l.255 5.497a1.362 1.362 0 0 0 .97 1.505l2.889.838c.223 1.191.492 3.664-.301 6.785l5.405.086.118-7.572-1.494-.026.983-.392.917-6.531c.217-.334.42-.681.61-1.047 2.109-4.018 1.9-8.284-.466-9.515zM613.01 464.651l1.475 3.664-6.107 5.229 1.422-7.46 3.21-1.433z"/>
    <path fill="#00414F" d="M604.696 477.274l6.585-2.121a2.287 2.287 0 0 0 1.336-1.132l1.828-3.501 1.055 3.272.99-.32-.295-3.986a3.27 3.27 0 0 0-1.167-2.27l-.76-.635a.41.41 0 0 0-.609.092l-2.811 4.266a5.319 5.319 0 0 1-2.195 1.885l-.753.347a7.647 7.647 0 0 0-1.52.922l-.885.694c-.091.078-.229.262-.367.465a3.785 3.785 0 0 0-.497 1.066l-.204.713c-.039.144.112.288.269.243z"/>
    <path fill="#F6A9A9" d="M660.853 387.127l1.965-3.429 7.895 1.544-6.742 3.508-3.118-1.623z"/>
    <path fill="#00414F" d="M675.922 385.812l-5.746-3.842a2.278 2.278 0 0 0-1.717-.346l-3.885.739 1.913-2.86-.865-.575-2.948 2.702a3.261 3.261 0 0 0-1.061 2.323l-.027.988a.415.415 0 0 0 .446.426l5.091-.445a5.217 5.217 0 0 1 2.843.556l.741.379c.53.269 1.087.478 1.664.616l1.094.261c.118.02.347.013.59 0a3.669 3.669 0 0 0 1.146-.268l.688-.281c.151-.072.17-.282.033-.373z"/>
    <path fill="#005679" d="M612.866 411.273a112.074 112.074 0 0 0 11.872-17.229c4.528-8.088 9.193-19.291-.36-24.422l-1.867-1.001c-6.578-3.527-11.846.105-15.915 6.099-4.684 6.897-7.784 16.916-9.454 22.733-2.012 6.995-4.803 16.346-4.108 23.518.091.929.288 1.702.55 2.336.118 1.453.387 3.004.813 4.601l1.539 5.738c.007.033.02.066.026.092 3.237 12.335 9.455 27.176 12.724 33.916 1.828.74 5.032-1.891 5.032-1.891-.524-7.368-2.503-22.648-5.897-35.015a.517.517 0 0 0-.026-.099l-1.54-5.738a26.69 26.69 0 0 0-1.611-4.424c3.007-2.866 5.805-6.334 8.222-9.214z"/>
    <path fill="#0488B2" d="M660.774 385.779c-6.146 4.495-18.182 14.344-27.289 23.891.537-3.069.957-6.164 1.245-9.286 10.935-17.445 8.354-39.02-7.751-37.574-3.289.295-5.314 1.813-6.427 4.018-5.412 1.217-6.356 10.012-6.9 16.392-.668 7.813 1.141 17.42 2.287 22.93 1.376 6.635 3.138 15.554 6.618 21.064 1.113 1.76 2.325 2.486 3.236 2.454a.727.727 0 0 0 .171-.026c2.902.379 7.698-2.173 11.813-6.524l4.285-4.535c.026-.027.045-.053.065-.079 9.258-9.685 19.053-23.23 23.246-29.728-.386-1.904-4.599-2.997-4.599-2.997z"/>
    <path fill="#C07FAF" d="M599.094 326.44c3.047-3.717 8.066-4.796 11.217-2.414l1.055.798c3.151 2.382 3.23 7.322.183 11.039l-2.627 3.207c-.013.019-.033.032-.046.052-6.84 8.533-19.249 17.04-21.877 18.015-1.435.536-2.476.432-3.007.033-.531-.4-.871-1.348-.668-2.814.373-2.69 6.073-16.268 13.104-24.657a.335.335 0 0 1 .039-.052l2.627-3.207z"/>
    <path fill="#F6A9A9" d="M559.39 364.139l-1.088-1.872c1.73-1.315 6.12-4.214 11.826-6.884.02-.006.04-.019.059-.026l3.892-1.839c5.838-2.761 13.314-3.867 14.775-1.551l.491.779c1.468 2.33-4.416 6.033-10.974 7.709l-4.364 1.112a.22.22 0 0 1-.066.013c-6.551 1.715-12.219 2.415-14.551 2.559z"/>
    <path fill="#F48254" d="M611.366 324.824l-1.055-.798c-3.151-2.382-8.17-1.303-11.217 2.414l-2.627 3.207c-.013.019-.026.039-.039.052-5.327 6.36-9.894 15.705-11.951 21.025-3.001.131-6.978 1.171-10.391 2.794l-.931.439c.8 2.414 1.658 4.809 2.588 7.172l2.634-.674c2.831-.72 5.53-1.82 7.568-3.024.327-.059.674-.15 1.061-.294 2.634-.975 15.037-9.482 21.877-18.015.013-.02.033-.033.046-.052l2.627-3.207c3.04-3.71 2.961-8.657-.19-11.039z"/>
    <path fill="#FBB549" d="M637.626 360.232c-6.008-19.036-16.943-33.484-16.943-33.484-5.347-5.903-9.769-8.121-16.026-5.831-6.257 2.291-10.097 8.71-8.459 14.789 0 0 10.549 11.602 9.939 35.114-.065 2.578-3.42 6.845 1.933 6.884 0 0 18.418 1.263 31.836-9.848 1.12-.93 1.278-2.585.328-3.685-1.009-1.171-2.176-2.558-2.608-3.939z"/>
    <path fill="#F48254" d="M599.323 328.881l10.844.824c.203 1.924.249 3.868.229 5.811-.065 6.636-.812 13.291-1.946 19.821a142.36 142.36 0 0 1-2.339 10.889c-.74-20.429-9.913-30.526-9.913-30.526a10.949 10.949 0 0 1-.321-3.868l3.446-2.951z"/>
    <path fill="#F6A9A9" d="M543.089 352.065l3.361-.157.013-.026-2.955.079a1.68 1.68 0 0 1-.57-.085l-.236-.072a.283.283 0 0 1-.072-.504c.301-.21.649-.334 1.015-.373l3.178-.327s1.029-.295 2.451-.184l-1.127-.418c-.223-.092-.688-.38-.629-.74l.039-.229c.387.039 1.808.386 2.326.478.531.098 2.87 1.884 2.87 1.884l1.631-.438.315 2.467-1.54.183-1.415.576-3.23.654h-.007l-2.686.243c-.203.013-.42 0-.636-.033l-.282-.046c-.268-.039-.452-.262-.314-.373.216-.17.524-.281.884-.334l1.18-.15-2.621-.059a3.953 3.953 0 0 1-.708-.092l-.308-.072c-.294-.065-.497-.314-.334-.418.249-.158.59-.249.996-.269l2.149-.072-2.358-.032a4.353 4.353 0 0 1-.846-.112l-.367-.091c-.353-.085-.576-.399-.373-.53.301-.184.721-.301 1.206-.328z"/>
    <path fill="#DBA0C8" d="M600.536 324.451c3.833-3.128 8.74-3.468 10.961-.759l.74.909c2.221 2.709.905 7.447-2.928 10.575L606 337.879l-.059.039c-8.668 7.205-22.427 13.624-25.114 14.193-1.467.314-2.391.072-2.764-.386-.374-.458-.426-1.407.176-2.781 1.095-2.513 10.136-14.704 18.929-21.751.02-.013.033-.033.052-.046l3.316-2.696z"/>
    <path fill="#F6A9A9" d="M552.68 353.61l-.058-2.343c2.417-1.139 8.301-3.54 15.37-5.405l.072-.02 4.829-1.302c7.247-1.95 15.201-1.688 15.384 1.237l.059.981c.183 2.939-7.613 5.949-14.978 6.518l-4.901.38c-.026 0-.045 0-.072.006-7.377.609-13.333.255-15.705-.052z"/>
    <path fill="#FBB549" d="M612.237 324.601l-.747-.909c-2.221-2.709-7.121-2.369-10.961.759l-3.309 2.702c-.019.013-.032.033-.052.046-4.37 3.501-8.793 8.265-12.278 12.486-1.769 2.146-4.292 3.514-7.057 3.874a37.467 37.467 0 0 0-4.946.981l-.662.177a42.972 42.972 0 0 0-.347 8.677l1.474-.111a37.36 37.36 0 0 0 6.224-1.028c.36.007.773-.033 1.252-.137 2.686-.57 16.445-6.989 25.113-14.194l.059-.039 3.309-2.702c3.833-3.135 5.143-7.873 2.928-10.582z"/>
    <path fill="#23233B" d="M607.625 307.359c-.184-1.564-.917-2.86-1.953-3.907 1.416-.497 3.119-.798 5.117-.674 7.391.445 9.147 10.62 10.791 19.867 1.573 8.847 12.534 9.239 15.81 14.442 6.002 9.521.478 16.968-7.135 18.872-7.712 1.924-13.549-1.289-15.403-6.59-2.136-6.118 1.375-10.875.615-14.828-.864-4.489-3.308-6.112-7.095-8.723-5.471-3.775-2.117-8.29-1.239-11.916.23-.949.079-1.773-.275-2.46.61-1.276.937-2.65.767-4.083z"/>
    <path fill="#23233B" d="M607.474 300.062c-1.31-.314-3.014 0-4.114 1.093-.656.648-1.095 1.414-.57 2.735.53 1.316.95 1.8 2.574 2.356 1.625.556 1.717 1.839 1.894 2.447.177.609.275 1.99 2.208 4.3 1.933 2.31 8.747 3.128 8.589.621-.137-2.211-.871-5.3-1.788-7.021-.878-1.675-2.831-5.104-8.793-6.531z"/>
    <path fill="#F6A9A9" d="M608.542 311.016c.858-.53 2.097.55 1.507 2.978-.328 1.341-2.909 3.992-3.636 1.57 0 0-.786-7.891.897-6.511.23.19.158 2.631 1.232 1.963z"/>
    <rect width="114.904" height="23.202" x="381.173" y="296.1" fill="#002B91" rx="4"/>
    <rect width="114.904" height="23.202" x="384.488" y="291.68" fill="#FE5F88" rx="4"/>
    <rect width="77.34" height="8.839" x="393.326" y="299.414" fill="#fff" rx="4.418"/>
    <path fill="#F2F2F2" d="M484.278 297.205c-2.444 0-4.396 1.969-4.35 4.384.019.903.308 1.741.799 2.441l-3.23 3.154a.77.77 0 0 0 .039 1.08.8.8 0 0 0 1.094.019l.014-.013.006-.006.007-.007 3.184-3.108a4.54 4.54 0 0 0 2.601.831c2.444 0 4.396-1.97 4.35-4.385-.045-2.427-2.07-4.39-4.514-4.39zm.144 7.577c-1.782 0-3.256-1.433-3.289-3.193-.032-1.76 1.389-3.193 3.165-3.193 1.782 0 3.256 1.433 3.289 3.193.033 1.76-1.389 3.193-3.165 3.193z"/>
    <defs>
        <linearGradient id="a" x1="256.366" x2="468.894" y1="60.151" y2="439.63" gradientUnits="userSpaceOnUse">
            <stop stop-color="#5580F8"/>
            <stop offset=".182" stop-color="#456DDE"/>
            <stop offset=".459" stop-color="#072E9B"/>
            <stop offset=".792" stop-color="#406DEC"/>
            <stop offset="1" stop-color="#5580F8"/>
        </linearGradient>
        <linearGradient id="b" x1="514.859" x2="275.109" y1="427.024" y2="427.024" gradientUnits="userSpaceOnUse">
            <stop stop-color="#1955FD"/>
            <stop offset="1" stop-color="#3259C7"/>
        </linearGradient>
        <linearGradient id="c" x1="314.701" x2="314.701" y1="73.213" y2="24.252" gradientUnits="userSpaceOnUse">
            <stop stop-color="#EE3F3A"/>
            <stop offset=".304" stop-color="#EF4F40"/>
            <stop offset=".9" stop-color="#F37A51"/>
            <stop offset="1" stop-color="#F48254"/>
        </linearGradient>
        <linearGradient id="d" x1="411.953" x2="585.052" y1="61.144" y2="208.55" gradientUnits="userSpaceOnUse">
            <stop stop-color="#E8EEFF"/>
            <stop offset="1" stop-color="#456DDE"/>
            <stop offset="1" stop-color="#406DEC"/>
        </linearGradient>
        <linearGradient id="e" x1="313.49" x2="315.842" y1="66.588" y2="72.173" gradientUnits="userSpaceOnUse">
            <stop stop-color="#005679"/>
            <stop offset=".182" stop-color="#005E80"/>
            <stop offset=".459" stop-color="#007294"/>
            <stop offset=".792" stop-color="#0094B4"/>
            <stop offset="1" stop-color="#00ADCB"/>
        </linearGradient>
        <linearGradient id="f" x1="248.988" x2="275.859" y1="218.918" y2="265.343" gradientUnits="userSpaceOnUse">
            <stop stop-color="#5580F8"/>
            <stop offset=".182" stop-color="#456DDE"/>
            <stop offset=".459" stop-color="#072E9B"/>
            <stop offset=".792" stop-color="#406DEC"/>
            <stop offset="1" stop-color="#5580F8"/>
        </linearGradient>
        <linearGradient id="g" x1="505.058" x2="505.058" y1="212.418" y2="281.181" gradientUnits="userSpaceOnUse">
            <stop stop-color="#E32858"/>
            <stop offset="1" stop-color="#EF5980"/>
        </linearGradient>
    </defs>
</svg>
